<svg xmlns="http://www.w3.org/2000/svg" xmlns:xlink="http://www.w3.org/1999/xlink" width="2000" zoomAndPan="magnify" viewBox="0 0 1500 1499.999933" height="2000" preserveAspectRatio="xMidYMid meet" version="1.0"><defs><g/><clipPath id="ed1c80dfee"><path d="M 216 472.988281 L 890.21875 472.988281 L 890.21875 958 L 216 958 Z M 216 472.988281 " clip-rule="nonzero"/></clipPath><clipPath id="4a79375bc6"><path d="M 546 962 L 611 962 L 611 1027.238281 L 546 1027.238281 Z M 546 962 " clip-rule="nonzero"/></clipPath><clipPath id="06fad924dd"><path d="M 688 962 L 753 962 L 753 1027.238281 L 688 1027.238281 Z M 688 962 " clip-rule="nonzero"/></clipPath><clipPath id="9f96c19d24"><rect x="0" width="281" y="0" height="473"/></clipPath><clipPath id="80a00dde04"><path d="M 596.375 675.703125 L 681.125 675.703125 L 681.125 762.703125 L 596.375 762.703125 Z M 596.375 675.703125 " clip-rule="nonzero"/></clipPath><clipPath id="697fa7ec30"><path d="M 0.398438 0.703125 L 84.960938 0.703125 L 84.960938 87.703125 L 0.398438 87.703125 Z M 0.398438 0.703125 " clip-rule="nonzero"/></clipPath><clipPath id="6d2959d7bb"><rect x="0" width="86" y="0" height="88"/></clipPath><clipPath id="03210001b8"><rect x="0" width="604" y="0" height="359"/></clipPath><clipPath id="e1e1c862af"><rect x="0" width="204" y="0" height="80"/></clipPath></defs><g clip-path="url(#ed1c80dfee)"><path fill="#04940e" d="M 647.859375 473.226562 C 580.144531 473.226562 518.691406 501.183594 474.835938 546.246094 C 490.980469 574.921875 502.066406 599.742188 509.054688 616.613281 C 540.140625 573.234375 590.746094 544.800781 648.101562 544.800781 C 742.324219 544.800781 818.714844 621.429688 818.714844 715.414062 C 818.714844 809.398438 742.082031 886.027344 648.101562 886.027344 C 600.867188 886.027344 554.839844 865.785156 522.789062 831.085938 C 507.125 814.214844 495.078125 793.972656 487.605469 772.042969 C 477.484375 741.921875 478.691406 709.628906 471.941406 678.785156 C 465.917969 650.832031 453.386719 625.046875 437.242188 601.429688 C 417.960938 573.476562 393.140625 549.136719 363.984375 531.546875 C 309.761719 498.773438 256.023438 496.363281 253.855469 496.363281 C 234.09375 495.640625 217.464844 511.0625 216.742188 530.582031 C 216.019531 550.34375 231.445312 566.96875 250.964844 567.691406 C 251.445312 567.691406 288.796875 569.859375 326.871094 592.753906 C 349.042969 606.007812 367.355469 625.046875 380.851562 646.976562 C 406.636719 689.386719 404.226562 743.125 420.132812 789.394531 C 443.988281 859.28125 496.039062 917.839844 566.167969 943.140625 C 592.433594 952.539062 620.386719 957.359375 648.339844 957.359375 C 781.84375 957.359375 890.527344 848.675781 890.527344 715.171875 C 890.527344 581.667969 781.84375 472.988281 648.339844 472.988281 Z M 647.859375 473.226562 " fill-opacity="1" fill-rule="nonzero"/></g><g clip-path="url(#4a79375bc6)"><path fill="#04940e" d="M 610.988281 994.953125 C 610.988281 996 610.9375 997.050781 610.835938 998.09375 C 610.730469 999.136719 610.578125 1000.175781 610.371094 1001.203125 C 610.167969 1002.234375 609.914062 1003.25 609.609375 1004.253906 C 609.304688 1005.261719 608.949219 1006.246094 608.550781 1007.21875 C 608.148438 1008.1875 607.699219 1009.132812 607.203125 1010.058594 C 606.710938 1010.984375 606.171875 1011.886719 605.585938 1012.757812 C 605.003906 1013.632812 604.378906 1014.472656 603.714844 1015.285156 C 603.046875 1016.097656 602.34375 1016.871094 601.601562 1017.613281 C 600.859375 1018.355469 600.082031 1019.0625 599.269531 1019.726562 C 598.460938 1020.394531 597.617188 1021.019531 596.746094 1021.601562 C 595.871094 1022.183594 594.972656 1022.722656 594.046875 1023.21875 C 593.121094 1023.710938 592.171875 1024.160156 591.203125 1024.5625 C 590.234375 1024.964844 589.246094 1025.316406 588.242188 1025.621094 C 587.238281 1025.925781 586.21875 1026.183594 585.191406 1026.386719 C 584.160156 1026.589844 583.125 1026.746094 582.078125 1026.847656 C 581.035156 1026.949219 579.988281 1027.003906 578.9375 1027.003906 C 577.886719 1027.003906 576.839844 1026.949219 575.796875 1026.847656 C 574.753906 1026.746094 573.714844 1026.589844 572.683594 1026.386719 C 571.65625 1026.183594 570.640625 1025.925781 569.632812 1025.621094 C 568.628906 1025.316406 567.644531 1024.964844 566.671875 1024.5625 C 565.703125 1024.160156 564.753906 1023.710938 563.828125 1023.21875 C 562.902344 1022.722656 562.003906 1022.183594 561.132812 1021.601562 C 560.257812 1021.019531 559.417969 1020.394531 558.605469 1019.726562 C 557.792969 1019.0625 557.015625 1018.355469 556.273438 1017.613281 C 555.53125 1016.871094 554.828125 1016.097656 554.164062 1015.285156 C 553.496094 1014.472656 552.871094 1013.632812 552.289062 1012.757812 C 551.707031 1011.886719 551.167969 1010.984375 550.671875 1010.058594 C 550.175781 1009.132812 549.730469 1008.1875 549.328125 1007.21875 C 548.925781 1006.246094 548.574219 1005.261719 548.269531 1004.253906 C 547.964844 1003.25 547.707031 1002.234375 547.503906 1001.203125 C 547.296875 1000.175781 547.144531 999.136719 547.042969 998.09375 C 546.9375 997.050781 546.886719 996 546.886719 994.953125 C 546.886719 993.902344 546.9375 992.855469 547.042969 991.8125 C 547.144531 990.765625 547.296875 989.730469 547.503906 988.699219 C 547.707031 987.667969 547.964844 986.652344 548.269531 985.648438 C 548.574219 984.644531 548.925781 983.65625 549.328125 982.6875 C 549.730469 981.71875 550.175781 980.769531 550.671875 979.84375 C 551.167969 978.917969 551.707031 978.019531 552.289062 977.144531 C 552.871094 976.273438 553.496094 975.429688 554.164062 974.621094 C 554.828125 973.808594 555.53125 973.03125 556.273438 972.289062 C 557.015625 971.546875 557.792969 970.84375 558.605469 970.175781 C 559.417969 969.511719 560.257812 968.886719 561.132812 968.304688 C 562.003906 967.71875 562.902344 967.179688 563.828125 966.6875 C 564.753906 966.191406 565.703125 965.742188 566.671875 965.339844 C 567.644531 964.941406 568.628906 964.585938 569.632812 964.28125 C 570.640625 963.976562 571.65625 963.722656 572.683594 963.515625 C 573.714844 963.3125 574.753906 963.160156 575.796875 963.054688 C 576.839844 962.953125 577.886719 962.902344 578.9375 962.902344 C 579.988281 962.902344 581.035156 962.953125 582.078125 963.054688 C 583.125 963.160156 584.160156 963.3125 585.191406 963.515625 C 586.21875 963.722656 587.238281 963.976562 588.242188 964.28125 C 589.246094 964.585938 590.234375 964.941406 591.203125 965.339844 C 592.171875 965.742188 593.121094 966.191406 594.046875 966.6875 C 594.972656 967.179688 595.871094 967.71875 596.746094 968.304688 C 597.617188 968.886719 598.460938 969.511719 599.269531 970.175781 C 600.082031 970.84375 600.859375 971.546875 601.601562 972.289062 C 602.34375 973.03125 603.046875 973.808594 603.714844 974.621094 C 604.378906 975.429688 605.003906 976.273438 605.585938 977.144531 C 606.171875 978.019531 606.710938 978.917969 607.203125 979.84375 C 607.699219 980.769531 608.148438 981.71875 608.550781 982.6875 C 608.949219 983.65625 609.304688 984.644531 609.609375 985.648438 C 609.914062 986.652344 610.167969 987.667969 610.371094 988.699219 C 610.578125 989.730469 610.730469 990.765625 610.835938 991.8125 C 610.9375 992.855469 610.988281 993.902344 610.988281 994.953125 Z M 610.988281 994.953125 " fill-opacity="1" fill-rule="nonzero"/></g><g clip-path="url(#06fad924dd)"><path fill="#04940e" d="M 752.6875 994.953125 C 752.683594 996 752.632812 997.050781 752.53125 998.09375 C 752.429688 999.136719 752.273438 1000.175781 752.070312 1001.203125 C 751.863281 1002.234375 751.609375 1003.25 751.304688 1004.253906 C 751 1005.261719 750.648438 1006.246094 750.246094 1007.21875 C 749.84375 1008.1875 749.394531 1009.132812 748.902344 1010.058594 C 748.40625 1010.984375 747.867188 1011.886719 747.285156 1012.757812 C 746.699219 1013.632812 746.078125 1014.472656 745.410156 1015.285156 C 744.746094 1016.097656 744.039062 1016.871094 743.296875 1017.613281 C 742.554688 1018.355469 741.777344 1019.0625 740.96875 1019.726562 C 740.15625 1020.394531 739.3125 1021.019531 738.441406 1021.601562 C 737.570312 1022.183594 736.667969 1022.722656 735.742188 1023.21875 C 734.816406 1023.710938 733.871094 1024.160156 732.898438 1024.5625 C 731.929688 1024.964844 730.941406 1025.316406 729.9375 1025.621094 C 728.933594 1025.925781 727.917969 1026.183594 726.886719 1026.386719 C 725.859375 1026.589844 724.820312 1026.746094 723.777344 1026.847656 C 722.730469 1026.949219 721.683594 1027.003906 720.636719 1027.003906 C 719.585938 1027.003906 718.539062 1026.949219 717.492188 1026.847656 C 716.449219 1026.746094 715.410156 1026.589844 714.382812 1026.386719 C 713.351562 1026.183594 712.335938 1025.925781 711.332031 1025.621094 C 710.328125 1025.316406 709.339844 1024.964844 708.371094 1024.5625 C 707.398438 1024.160156 706.453125 1023.710938 705.527344 1023.21875 C 704.601562 1022.722656 703.703125 1022.183594 702.828125 1021.601562 C 701.957031 1021.019531 701.113281 1020.394531 700.300781 1019.726562 C 699.492188 1019.0625 698.714844 1018.355469 697.972656 1017.613281 C 697.230469 1016.871094 696.527344 1016.097656 695.859375 1015.285156 C 695.195312 1014.472656 694.570312 1013.632812 693.984375 1012.757812 C 693.402344 1011.886719 692.863281 1010.984375 692.367188 1010.058594 C 691.875 1009.132812 691.425781 1008.1875 691.023438 1007.21875 C 690.621094 1006.246094 690.269531 1005.261719 689.964844 1004.253906 C 689.660156 1003.25 689.40625 1002.234375 689.199219 1001.203125 C 688.996094 1000.175781 688.84375 999.136719 688.738281 998.09375 C 688.636719 997.050781 688.585938 996 688.585938 994.953125 C 688.585938 993.902344 688.636719 992.855469 688.738281 991.8125 C 688.84375 990.765625 688.996094 989.730469 689.199219 988.699219 C 689.40625 987.667969 689.660156 986.652344 689.964844 985.648438 C 690.269531 984.644531 690.621094 983.65625 691.023438 982.6875 C 691.425781 981.71875 691.875 980.769531 692.367188 979.84375 C 692.863281 978.917969 693.402344 978.019531 693.984375 977.144531 C 694.570312 976.273438 695.195312 975.429688 695.859375 974.621094 C 696.527344 973.808594 697.230469 973.03125 697.972656 972.289062 C 698.714844 971.546875 699.492188 970.84375 700.300781 970.175781 C 701.113281 969.511719 701.957031 968.886719 702.828125 968.304688 C 703.703125 967.71875 704.601562 967.179688 705.527344 966.6875 C 706.453125 966.191406 707.398438 965.742188 708.371094 965.339844 C 709.339844 964.941406 710.328125 964.585938 711.332031 964.28125 C 712.335938 963.976562 713.351562 963.722656 714.382812 963.515625 C 715.410156 963.3125 716.449219 963.160156 717.492188 963.054688 C 718.539062 962.953125 719.585938 962.902344 720.636719 962.902344 C 721.683594 962.902344 722.730469 962.953125 723.777344 963.054688 C 724.820312 963.160156 725.859375 963.3125 726.886719 963.515625 C 727.917969 963.722656 728.933594 963.976562 729.9375 964.28125 C 730.941406 964.585938 731.929688 964.941406 732.898438 965.339844 C 733.871094 965.742188 734.816406 966.191406 735.742188 966.6875 C 736.667969 967.179688 737.570312 967.71875 738.441406 968.304688 C 739.3125 968.886719 740.15625 969.511719 740.96875 970.175781 C 741.777344 970.84375 742.554688 971.546875 743.296875 972.289062 C 744.039062 973.03125 744.746094 973.808594 745.410156 974.621094 C 746.078125 975.429688 746.699219 976.273438 747.285156 977.144531 C 747.867188 978.019531 748.40625 978.917969 748.902344 979.84375 C 749.394531 980.769531 749.84375 981.71875 750.246094 982.6875 C 750.648438 983.65625 751 984.644531 751.304688 985.648438 C 751.609375 986.652344 751.863281 987.667969 752.070312 988.699219 C 752.273438 989.730469 752.429688 990.765625 752.53125 991.8125 C 752.632812 992.855469 752.683594 993.902344 752.6875 994.953125 Z M 752.6875 994.953125 " fill-opacity="1" fill-rule="nonzero"/></g><path fill="#04940e" d="M 731.480469 715.414062 C 731.480469 716.773438 731.445312 718.132812 731.378906 719.492188 C 731.3125 720.851562 731.210938 722.207031 731.078125 723.5625 C 730.945312 724.917969 730.777344 726.265625 730.578125 727.613281 C 730.378906 728.957031 730.148438 730.300781 729.882812 731.632812 C 729.617188 732.96875 729.316406 734.296875 728.988281 735.613281 C 728.65625 736.933594 728.292969 738.246094 727.898438 739.546875 C 727.503906 740.851562 727.078125 742.140625 726.621094 743.421875 C 726.160156 744.703125 725.671875 745.972656 725.152344 747.230469 C 724.628906 748.488281 724.078125 749.730469 723.496094 750.960938 C 722.914062 752.191406 722.304688 753.40625 721.664062 754.605469 C 721.019531 755.804688 720.351562 756.988281 719.652344 758.15625 C 718.953125 759.324219 718.222656 760.472656 717.46875 761.601562 C 716.710938 762.734375 715.929688 763.847656 715.117188 764.9375 C 714.308594 766.03125 713.472656 767.105469 712.609375 768.15625 C 711.746094 769.207031 710.855469 770.238281 709.941406 771.246094 C 709.027344 772.253906 708.089844 773.238281 707.128906 774.203125 C 706.167969 775.164062 705.179688 776.101562 704.171875 777.015625 C 703.164062 777.929688 702.136719 778.816406 701.082031 779.679688 C 700.03125 780.542969 698.960938 781.378906 697.867188 782.191406 C 696.773438 783 695.660156 783.785156 694.53125 784.539062 C 693.398438 785.296875 692.25 786.023438 691.082031 786.722656 C 689.914062 787.421875 688.730469 788.09375 687.53125 788.734375 C 686.332031 789.375 685.117188 789.988281 683.886719 790.570312 C 682.65625 791.152344 681.414062 791.703125 680.15625 792.222656 C 678.898438 792.746094 677.628906 793.234375 676.347656 793.691406 C 675.066406 794.152344 673.777344 794.578125 672.472656 794.972656 C 671.171875 795.367188 669.863281 795.730469 668.542969 796.0625 C 667.222656 796.390625 665.894531 796.6875 664.558594 796.953125 C 663.226562 797.21875 661.886719 797.453125 660.539062 797.652344 C 659.195312 797.851562 657.84375 798.019531 656.488281 798.152344 C 655.136719 798.285156 653.777344 798.386719 652.421875 798.453125 C 651.0625 798.519531 649.703125 798.550781 648.339844 798.550781 C 646.980469 798.550781 645.621094 798.519531 644.261719 798.453125 C 642.902344 798.386719 641.546875 798.285156 640.191406 798.152344 C 638.835938 798.019531 637.488281 797.851562 636.140625 797.652344 C 634.796875 797.453125 633.457031 797.21875 632.121094 796.953125 C 630.785156 796.6875 629.460938 796.390625 628.140625 796.0625 C 626.820312 795.730469 625.507812 795.367188 624.207031 794.972656 C 622.90625 794.578125 621.613281 794.152344 620.332031 793.691406 C 619.050781 793.234375 617.78125 792.746094 616.523438 792.222656 C 615.269531 791.703125 614.023438 791.152344 612.792969 790.570312 C 611.566406 789.988281 610.347656 789.375 609.148438 788.734375 C 607.949219 788.09375 606.765625 787.421875 605.597656 786.722656 C 604.433594 786.023438 603.28125 785.296875 602.152344 784.539062 C 601.019531 783.785156 599.90625 783 598.816406 782.191406 C 597.722656 781.378906 596.648438 780.542969 595.597656 779.679688 C 594.546875 778.816406 593.515625 777.929688 592.507812 777.015625 C 591.5 776.101562 590.515625 775.164062 589.554688 774.203125 C 588.589844 773.238281 587.652344 772.253906 586.738281 771.246094 C 585.824219 770.238281 584.9375 769.207031 584.074219 768.15625 C 583.210938 767.105469 582.375 766.03125 581.5625 764.9375 C 580.753906 763.847656 579.96875 762.734375 579.214844 761.601562 C 578.457031 760.472656 577.730469 759.324219 577.03125 758.15625 C 576.332031 756.988281 575.660156 755.804688 575.019531 754.605469 C 574.378906 753.40625 573.765625 752.191406 573.183594 750.960938 C 572.601562 749.730469 572.050781 748.488281 571.53125 747.230469 C 571.011719 745.972656 570.519531 744.703125 570.0625 743.421875 C 569.605469 742.140625 569.175781 740.851562 568.78125 739.546875 C 568.386719 738.246094 568.023438 736.933594 567.695312 735.613281 C 567.363281 734.296875 567.066406 732.96875 566.800781 731.632812 C 566.535156 730.296875 566.300781 728.957031 566.101562 727.613281 C 565.902344 726.265625 565.734375 724.917969 565.601562 723.5625 C 565.46875 722.207031 565.371094 720.851562 565.300781 719.492188 C 565.234375 718.132812 565.203125 716.773438 565.203125 715.414062 C 565.203125 714.054688 565.234375 712.695312 565.300781 711.335938 C 565.367188 709.976562 565.46875 708.617188 565.601562 707.265625 C 565.734375 705.910156 565.902344 704.5625 566.101562 703.214844 C 566.300781 701.867188 566.535156 700.527344 566.800781 699.195312 C 567.066406 697.859375 567.363281 696.53125 567.695312 695.210938 C 568.023438 693.894531 568.386719 692.582031 568.78125 691.28125 C 569.175781 689.976562 569.605469 688.6875 570.0625 687.40625 C 570.519531 686.125 571.011719 684.855469 571.53125 683.597656 C 572.050781 682.339844 572.601562 681.097656 573.183594 679.867188 C 573.765625 678.636719 574.378906 677.421875 575.019531 676.222656 C 575.660156 675.023438 576.332031 673.839844 577.03125 672.671875 C 577.730469 671.503906 578.457031 670.355469 579.214844 669.222656 C 579.96875 668.09375 580.753906 666.980469 581.5625 665.886719 C 582.375 664.796875 583.210938 663.722656 584.074219 662.671875 C 584.9375 661.621094 585.824219 660.589844 586.738281 659.582031 C 587.652344 658.574219 588.589844 657.589844 589.554688 656.625 C 590.515625 655.664062 591.5 654.726562 592.507812 653.8125 C 593.515625 652.898438 594.546875 652.011719 595.597656 651.148438 C 596.648438 650.285156 597.722656 649.445312 598.816406 648.636719 C 599.90625 647.824219 601.019531 647.042969 602.152344 646.285156 C 603.28125 645.53125 604.433594 644.804688 605.597656 644.105469 C 606.765625 643.402344 607.949219 642.734375 609.148438 642.09375 C 610.347656 641.449219 611.5625 640.839844 612.792969 640.257812 C 614.023438 639.675781 615.269531 639.125 616.523438 638.605469 C 617.78125 638.082031 619.050781 637.59375 620.332031 637.136719 C 621.613281 636.675781 622.90625 636.25 624.207031 635.855469 C 625.507812 635.460938 626.820312 635.097656 628.140625 634.765625 C 629.460938 634.4375 630.785156 634.136719 632.121094 633.871094 C 633.457031 633.605469 634.796875 633.375 636.140625 633.175781 C 637.488281 632.976562 638.835938 632.808594 640.191406 632.675781 C 641.546875 632.542969 642.902344 632.441406 644.261719 632.375 C 645.621094 632.308594 646.980469 632.273438 648.339844 632.273438 C 649.703125 632.273438 651.0625 632.308594 652.421875 632.375 C 653.777344 632.441406 655.136719 632.542969 656.488281 632.675781 C 657.84375 632.808594 659.195312 632.976562 660.539062 633.175781 C 661.886719 633.375 663.226562 633.605469 664.558594 633.871094 C 665.894531 634.136719 667.222656 634.4375 668.542969 634.765625 C 669.863281 635.097656 671.171875 635.460938 672.472656 635.855469 C 673.777344 636.25 675.066406 636.675781 676.347656 637.136719 C 677.628906 637.59375 678.898438 638.082031 680.15625 638.605469 C 681.414062 639.125 682.65625 639.675781 683.886719 640.257812 C 685.117188 640.839844 686.332031 641.449219 687.53125 642.09375 C 688.730469 642.734375 689.914062 643.402344 691.082031 644.105469 C 692.25 644.804688 693.398438 645.53125 694.53125 646.285156 C 695.660156 647.042969 696.773438 647.824219 697.867188 648.636719 C 698.960938 649.445312 700.03125 650.285156 701.082031 651.148438 C 702.136719 652.011719 703.164062 652.898438 704.171875 653.8125 C 705.179688 654.726562 706.167969 655.664062 707.128906 656.625 C 708.089844 657.589844 709.027344 658.574219 709.941406 659.582031 C 710.855469 660.589844 711.746094 661.621094 712.609375 662.671875 C 713.472656 663.722656 714.308594 664.796875 715.117188 665.886719 C 715.929688 666.980469 716.710938 668.09375 717.46875 669.222656 C 718.222656 670.355469 718.953125 671.503906 719.652344 672.671875 C 720.351562 673.839844 721.019531 675.023438 721.664062 676.222656 C 722.304688 677.421875 722.914062 678.636719 723.496094 679.867188 C 724.078125 681.097656 724.628906 682.339844 725.152344 683.597656 C 725.671875 684.855469 726.160156 686.125 726.621094 687.40625 C 727.078125 688.6875 727.503906 689.976562 727.898438 691.28125 C 728.292969 692.582031 728.65625 693.894531 728.988281 695.210938 C 729.316406 696.53125 729.617188 697.859375 729.882812 699.195312 C 730.148438 700.527344 730.378906 701.867188 730.578125 703.214844 C 730.777344 704.5625 730.945312 705.910156 731.078125 707.265625 C 731.210938 708.617188 731.3125 709.976562 731.378906 711.335938 C 731.445312 712.695312 731.480469 714.054688 731.480469 715.414062 Z M 731.480469 715.414062 " fill-opacity="1" fill-rule="nonzero"/><g transform="matrix(1, 0, 0, 1, 505, 474)"><g clip-path="url(#9f96c19d24)"><g fill="#000000" fill-opacity="1"><g transform="translate(0.92831, 360.86191)"><g><path d="M 78.8125 -123.4375 C 78.8125 -76.09375 97.972656 -52.421875 136.296875 -52.421875 C 174.628906 -52.421875 193.796875 -76.09375 193.796875 -123.4375 C 193.796875 -170.789062 174.628906 -194.46875 136.296875 -194.46875 C 97.972656 -194.46875 78.8125 -170.789062 78.8125 -123.4375 Z M 43.796875 -216.28125 C 66.679688 -238.945312 97.515625 -250.28125 136.296875 -250.28125 C 175.078125 -250.28125 205.910156 -238.945312 228.796875 -216.28125 C 251.691406 -193.625 263.140625 -162.675781 263.140625 -123.4375 C 263.140625 -84.207031 251.691406 -53.265625 228.796875 -30.609375 C 205.910156 -7.953125 175.078125 3.375 136.296875 3.375 C 97.515625 3.375 66.679688 -7.953125 43.796875 -30.609375 C 20.910156 -53.265625 9.46875 -84.207031 9.46875 -123.4375 C 9.46875 -162.675781 20.910156 -193.625 43.796875 -216.28125 Z M 43.796875 -216.28125 "/></g></g></g></g></g><g clip-path="url(#80a00dde04)"><g transform="matrix(1, 0, 0, 1, 596, 675)"><g clip-path="url(#6d2959d7bb)"><g clip-path="url(#697fa7ec30)"><path fill="#ff751f" d="M 51.425781 86.945312 C 51.703125 86.808594 52.054688 86.515625 52.207031 86.292969 C 52.359375 86.074219 53.222656 84.015625 54.125 81.722656 C 55.023438 79.429688 56.351562 76.0625 57.074219 74.234375 C 57.796875 72.410156 64.363281 55.777344 71.671875 37.277344 C 80.339844 15.34375 84.960938 3.449219 84.960938 3.097656 C 84.960938 1.957031 83.652344 0.773438 82.582031 0.945312 C 82.320312 0.992188 75.75 3.609375 67.980469 6.765625 C 60.210938 9.925781 49.925781 14.101562 45.128906 16.050781 C 2.375 33.40625 1.722656 33.675781 1.242188 34.277344 C 0.378906 35.347656 0.550781 36.875 1.597656 37.417969 C 1.851562 37.546875 10.636719 39.726562 21.121094 42.253906 C 31.605469 44.785156 40.222656 46.890625 40.265625 46.933594 C 40.332031 47 43.027344 59.574219 46.4375 75.703125 C 46.722656 77.0625 47.320312 79.875 47.757812 81.953125 C 48.199219 84.035156 48.660156 85.929688 48.78125 86.167969 C 49.257812 87.09375 50.429688 87.4375 51.425781 86.945312 Z M 51.425781 86.945312 " fill-opacity="1" fill-rule="nonzero"/></g></g></g></g><g transform="matrix(1, 0, 0, 1, 706, 513)"><g clip-path="url(#03210001b8)"><g fill="#ffffff" fill-opacity="1"><g transform="translate(0.255578, 271.044706)"><g><path d="M 55.785156 -114.421875 C 69.1875 -131.320312 86.734375 -141.511719 108.433594 -144.996094 C 111.875 -145.597656 115.191406 -145.390625 118.386719 -144.378906 C 121.578125 -143.371094 124.441406 -141.601562 126.96875 -139.070312 C 131.6875 -134.351562 134.046875 -128.601562 134.046875 -121.8125 L 134.046875 -112.542969 C 134.046875 -105.980469 131.71875 -100.304688 127.070312 -95.515625 C 122.660156 -90.972656 117.273438 -88.300781 110.90625 -87.507812 C 98.457031 -85.960938 89.371094 -82.523438 83.640625 -77.203125 C 78.441406 -72.375 75.84375 -65.523438 75.84375 -56.65625 L 75.84375 -14.679688 C 75.84375 -8.0625 73.441406 -2.351562 68.636719 2.453125 C 63.832031 7.253906 58.121094 9.65625 51.507812 9.65625 L 30.902344 9.65625 C 24.289062 9.65625 18.578125 7.253906 13.773438 2.453125 C 8.96875 -2.351562 6.566406 -8.0625 6.566406 -14.679688 L 6.566406 -119.238281 C 6.566406 -125.851562 8.96875 -131.5625 13.773438 -136.367188 C 18.578125 -141.171875 24.289062 -143.574219 30.902344 -143.574219 L 47.644531 -143.574219 C 54.203125 -143.574219 59.925781 -141.207031 64.804688 -136.464844 C 69.761719 -131.652344 72.238281 -125.90625 72.238281 -119.238281 L 72.238281 -108.421875 C 72.238281 -111.003906 71.316406 -113.214844 69.472656 -115.058594 C 67.632812 -116.898438 65.417969 -117.820312 62.839844 -117.820312 C 61.488281 -117.820312 60.179688 -117.503906 58.90625 -116.867188 C 57.417969 -116.125 56.210938 -115.054688 55.285156 -113.664062 C 54.226562 -112.074219 53.695312 -110.328125 53.695312 -108.421875 L 53.695312 -111.785156 Z M 70.921875 -102.417969 L 63.351562 -108.421875 L 73.011719 -108.421875 C 73.011719 -106.429688 72.460938 -104.605469 71.355469 -102.949219 C 70.386719 -101.496094 69.117188 -100.375 67.542969 -99.589844 C 66.097656 -98.867188 64.53125 -98.503906 62.839844 -98.503906 C 60.085938 -98.503906 57.746094 -99.46875 55.816406 -101.398438 C 53.886719 -103.328125 52.921875 -105.667969 52.921875 -108.421875 L 52.921875 -119.238281 C 52.921875 -120.464844 52.394531 -121.589844 51.34375 -122.609375 C 50.214844 -123.710938 48.980469 -124.257812 47.644531 -124.257812 L 30.902344 -124.257812 C 29.621094 -124.257812 28.464844 -123.742188 27.433594 -122.710938 C 26.398438 -121.675781 25.882812 -120.519531 25.882812 -119.238281 L 25.882812 -14.679688 C 25.882812 -13.398438 26.398438 -12.238281 27.433594 -11.207031 C 28.464844 -10.175781 29.621094 -9.65625 30.902344 -9.65625 L 51.507812 -9.65625 C 52.789062 -9.65625 53.945312 -10.175781 54.976562 -11.207031 C 56.011719 -12.238281 56.527344 -13.398438 56.527344 -14.679688 L 56.527344 -56.65625 C 56.527344 -71.140625 61.183594 -82.703125 70.492188 -91.351562 C 79.269531 -99.507812 91.945312 -104.613281 108.511719 -106.671875 C 110.386719 -106.90625 111.953125 -107.671875 113.207031 -108.96875 C 114.222656 -110.011719 114.730469 -111.203125 114.730469 -112.542969 L 114.730469 -121.8125 C 114.730469 -123.265625 114.257812 -124.464844 113.308594 -125.414062 C 113.003906 -125.71875 112.753906 -125.902344 112.558594 -125.964844 C 112.359375 -126.027344 112.007812 -126.015625 111.5 -125.925781 C 94.738281 -123.234375 81.210938 -115.398438 70.921875 -102.417969 Z M 70.921875 -102.417969 "/></g></g></g><g fill="#ffffff" fill-opacity="1"><g transform="translate(110.988118, 271.044706)"><g><path d="M 88.976562 -65.671875 L 88.976562 -68.246094 C 88.976562 -75.933594 87.621094 -81.628906 84.910156 -85.34375 C 82.890625 -88.109375 80.167969 -89.492188 76.746094 -89.492188 C 74.839844 -89.492188 73.234375 -89.160156 71.917969 -88.496094 C 70.652344 -87.859375 69.515625 -86.835938 68.507812 -85.425781 C 65.84375 -81.695312 64.511719 -75.539062 64.511719 -66.957031 C 64.511719 -58.777344 65.941406 -52.75 68.804688 -48.875 C 70.996094 -45.90625 73.640625 -44.425781 76.746094 -44.425781 C 80.199219 -44.425781 82.9375 -45.785156 84.957031 -48.503906 C 87.636719 -52.117188 88.976562 -57.839844 88.976562 -65.671875 Z M 108.292969 -65.671875 C 108.292969 -53.585938 105.683594 -44.027344 100.46875 -36.996094 C 94.589844 -29.070312 86.679688 -25.109375 76.746094 -25.109375 C 67.144531 -25.109375 59.316406 -29.207031 53.265625 -37.398438 C 47.886719 -44.683594 45.195312 -54.539062 45.195312 -66.957031 C 45.195312 -79.667969 47.726562 -89.5625 52.789062 -96.652344 C 55.644531 -100.648438 59.121094 -103.679688 63.222656 -105.746094 C 67.273438 -107.789062 71.78125 -108.808594 76.746094 -108.808594 C 86.710938 -108.808594 94.632812 -104.78125 100.511719 -96.734375 C 105.699219 -89.628906 108.292969 -80.132812 108.292969 -68.246094 Z M 88.976562 -118.722656 L 88.976562 -178.46875 C 88.976562 -185.085938 91.378906 -190.796875 96.183594 -195.601562 C 100.988281 -200.40625 106.699219 -202.808594 113.3125 -202.808594 L 132.886719 -202.808594 C 139.503906 -202.808594 145.210938 -200.40625 150.015625 -195.601562 C 154.820312 -190.796875 157.222656 -185.085938 157.222656 -178.46875 L 157.222656 -14.679688 C 157.222656 -8.0625 154.820312 -2.351562 150.015625 2.453125 C 145.210938 7.253906 139.503906 9.65625 132.886719 9.65625 L 117.175781 9.65625 C 110.445312 9.65625 104.683594 7.332031 99.890625 2.679688 C 95.242188 -1.832031 92.644531 -7.351562 92.101562 -13.878906 L 91.808594 -17.367188 L 91.808594 -17.769531 C 91.808594 -15.1875 92.730469 -12.976562 94.574219 -11.132812 C 96.417969 -9.289062 98.628906 -8.371094 101.210938 -8.371094 C 103.707031 -8.371094 105.808594 -9.226562 107.523438 -10.941406 L 100.695312 -17.769531 L 108.246094 -11.75 C 95.496094 4.238281 79.84375 12.234375 61.292969 12.234375 C 42.742188 12.234375 27.566406 4.84375 15.761719 -9.941406 C 4.480469 -24.0625 -1.160156 -43.070312 -1.160156 -66.957031 C -1.160156 -91.335938 4.292969 -110.453125 15.203125 -124.308594 C 26.664062 -138.871094 42.027344 -146.148438 61.292969 -146.148438 C 78.507812 -146.148438 93.144531 -139.101562 105.203125 -125 L 97.863281 -118.722656 L 104.691406 -125.550781 C 102.976562 -127.265625 100.871094 -128.121094 98.378906 -128.121094 C 95.796875 -128.121094 93.585938 -127.203125 91.742188 -125.359375 C 89.898438 -123.515625 88.976562 -121.304688 88.976562 -118.722656 Z M 108.292969 -118.722656 C 108.292969 -115.96875 107.328125 -113.628906 105.398438 -111.699219 C 103.472656 -109.769531 101.128906 -108.808594 98.378906 -108.808594 C 95.539062 -108.808594 93.089844 -109.835938 91.03125 -111.894531 L 90.765625 -112.160156 L 90.523438 -112.445312 C 82.320312 -122.039062 72.578125 -126.835938 61.292969 -126.835938 C 48.28125 -126.835938 37.976562 -122.011719 30.378906 -112.363281 C 22.230469 -102.011719 18.15625 -86.875 18.15625 -66.957031 C 18.15625 -47.582031 22.390625 -32.59375 30.851562 -21.992188 C 38.792969 -12.054688 48.9375 -7.082031 61.292969 -7.082031 C 73.644531 -7.082031 84.261719 -12.652344 93.144531 -23.792969 L 93.480469 -24.214844 L 93.867188 -24.597656 C 95.921875 -26.65625 98.371094 -27.683594 101.210938 -27.683594 C 103.964844 -27.683594 106.304688 -26.722656 108.234375 -24.792969 C 110.160156 -22.863281 111.125 -20.523438 111.125 -17.769531 L 101.46875 -17.769531 L 111.09375 -18.570312 L 111.351562 -15.480469 C 111.492188 -13.765625 112.15625 -12.332031 113.34375 -11.179688 C 114.390625 -10.164062 115.667969 -9.65625 117.175781 -9.65625 L 132.886719 -9.65625 C 134.167969 -9.65625 135.324219 -10.175781 136.359375 -11.207031 C 137.390625 -12.238281 137.90625 -13.398438 137.90625 -14.679688 L 137.90625 -178.46875 C 137.90625 -179.75 137.390625 -180.910156 136.359375 -181.941406 C 135.324219 -182.976562 134.167969 -183.492188 132.886719 -183.492188 L 113.3125 -183.492188 C 112.03125 -183.492188 110.875 -182.976562 109.84375 -181.941406 C 108.808594 -180.910156 108.292969 -179.75 108.292969 -178.46875 Z M 108.292969 -118.722656 "/></g></g></g><g fill="#ffffff" fill-opacity="1"><g transform="translate(251.335778, 271.044706)"><g><path d="M 11.71875 -171.773438 L 11.71875 -178.46875 C 11.71875 -185.085938 14.121094 -190.796875 18.925781 -195.601562 C 23.730469 -200.40625 29.4375 -202.808594 36.054688 -202.808594 L 58.203125 -202.808594 C 64.816406 -202.808594 70.527344 -200.40625 75.332031 -195.601562 C 80.136719 -190.796875 82.539062 -185.085938 82.539062 -178.46875 L 82.539062 -171.773438 C 82.539062 -165.160156 80.136719 -159.449219 75.332031 -154.644531 C 70.527344 -149.839844 64.816406 -147.4375 58.203125 -147.4375 L 36.054688 -147.4375 C 29.4375 -147.4375 23.730469 -149.839844 18.925781 -154.644531 C 14.121094 -159.449219 11.71875 -165.160156 11.71875 -171.773438 Z M 31.035156 -171.773438 C 31.035156 -170.492188 31.550781 -169.335938 32.582031 -168.300781 C 33.617188 -167.269531 34.773438 -166.753906 36.054688 -166.753906 L 58.203125 -166.753906 C 59.484375 -166.753906 60.640625 -167.269531 61.675781 -168.300781 C 62.707031 -169.335938 63.222656 -170.492188 63.222656 -171.773438 L 63.222656 -178.46875 C 63.222656 -179.75 62.707031 -180.910156 61.675781 -181.941406 C 60.640625 -182.976562 59.484375 -183.492188 58.203125 -183.492188 L 36.054688 -183.492188 C 34.773438 -183.492188 33.617188 -182.976562 32.582031 -181.941406 C 31.550781 -180.910156 31.035156 -179.75 31.035156 -178.46875 Z M 11.71875 -14.679688 L 11.71875 -119.238281 C 11.71875 -125.851562 14.121094 -131.5625 18.925781 -136.367188 C 23.730469 -141.171875 29.4375 -143.574219 36.054688 -143.574219 L 58.203125 -143.574219 C 64.816406 -143.574219 70.527344 -141.171875 75.332031 -136.367188 C 80.136719 -131.5625 82.539062 -125.851562 82.539062 -119.238281 L 82.539062 -14.679688 C 82.539062 -8.0625 80.136719 -2.351562 75.332031 2.453125 C 70.527344 7.253906 64.816406 9.65625 58.203125 9.65625 L 36.054688 9.65625 C 29.4375 9.65625 23.730469 7.253906 18.925781 2.453125 C 14.121094 -2.351562 11.71875 -8.0625 11.71875 -14.679688 Z M 31.035156 -14.679688 C 31.035156 -13.398438 31.550781 -12.238281 32.582031 -11.207031 C 33.617188 -10.175781 34.773438 -9.65625 36.054688 -9.65625 L 58.203125 -9.65625 C 59.484375 -9.65625 60.640625 -10.175781 61.675781 -11.207031 C 62.707031 -12.238281 63.222656 -13.398438 63.222656 -14.679688 L 63.222656 -119.238281 C 63.222656 -120.519531 62.707031 -121.675781 61.675781 -122.710938 C 60.640625 -123.742188 59.484375 -124.257812 58.203125 -124.257812 L 36.054688 -124.257812 C 34.773438 -124.257812 33.617188 -123.742188 32.582031 -122.710938 C 31.550781 -121.675781 31.035156 -120.519531 31.035156 -119.238281 Z M 31.035156 -14.679688 "/></g></g></g><g fill="#ffffff" fill-opacity="1"><g transform="translate(320.864642, 271.044706)"><g><path d="M 106.359375 -144.863281 C 104.433594 -144.863281 102.945312 -144.683594 101.902344 -144.324219 C 101.664062 -144.242188 101.496094 -144.167969 101.398438 -144.101562 C 101.449219 -144.136719 101.511719 -144.199219 101.585938 -144.292969 C 101.621094 -144.335938 101.636719 -144.359375 101.640625 -144.367188 C 101.597656 -144.285156 101.546875 -144.175781 101.488281 -144.035156 C 101.289062 -143.546875 101.109375 -142.90625 100.949219 -142.121094 C 100.523438 -140.035156 100.308594 -137.300781 100.308594 -133.917969 L 100.308594 -131.085938 C 100.308594 -132.976562 99.558594 -134.675781 98.058594 -136.175781 C 96.5625 -137.675781 94.863281 -138.425781 92.96875 -138.425781 L 114.859375 -138.425781 C 121.476562 -138.425781 127.183594 -136.023438 131.988281 -131.21875 C 136.792969 -126.414062 139.195312 -120.703125 139.195312 -114.085938 L 139.195312 -109.964844 C 139.195312 -103.351562 136.792969 -97.640625 131.988281 -92.835938 C 127.183594 -88.03125 121.476562 -85.628906 114.859375 -85.628906 L 92.96875 -85.628906 C 94.863281 -85.628906 96.5625 -86.378906 98.058594 -87.878906 C 99.558594 -89.378906 100.308594 -91.074219 100.308594 -92.96875 L 100.308594 -14.679688 C 100.308594 -8.0625 97.90625 -2.351562 93.101562 2.453125 C 88.296875 7.253906 82.589844 9.65625 75.972656 9.65625 L 55.371094 9.65625 C 48.753906 9.65625 43.042969 7.253906 38.238281 2.453125 C 33.433594 -2.351562 31.03125 -8.0625 31.03125 -14.679688 L 31.03125 -92.96875 C 31.03125 -91.074219 31.78125 -89.378906 33.28125 -87.878906 C 34.78125 -86.378906 36.476562 -85.628906 38.371094 -85.628906 L 25.753906 -85.628906 C 19.136719 -85.628906 13.425781 -88.03125 8.621094 -92.835938 C 3.816406 -97.640625 1.414062 -103.351562 1.414062 -109.964844 L 1.414062 -114.085938 C 1.414062 -120.703125 3.816406 -126.414062 8.621094 -131.21875 C 13.425781 -136.023438 19.136719 -138.425781 25.753906 -138.425781 L 38.371094 -138.425781 C 36.476562 -138.425781 34.78125 -137.675781 33.28125 -136.175781 C 31.78125 -134.675781 31.03125 -132.976562 31.03125 -131.085938 L 31.03125 -133.917969 C 31.03125 -154.972656 36.878906 -171.292969 48.570312 -182.882812 C 60.238281 -194.449219 76.496094 -200.230469 97.347656 -200.230469 C 104.074219 -200.230469 111.3125 -199.78125 119.066406 -198.878906 C 125.984375 -197.976562 131.414062 -194.605469 135.355469 -188.765625 C 139.210938 -183.050781 140.417969 -176.875 138.976562 -170.238281 L 129.539062 -172.289062 L 139.046875 -170.589844 L 137.757812 -163.378906 C 136.523438 -156.882812 133.046875 -151.90625 127.328125 -148.445312 C 122.269531 -145.382812 116.71875 -144.113281 110.675781 -144.640625 L 110.410156 -144.664062 L 110.144531 -144.699219 C 109.398438 -144.808594 108.136719 -144.863281 106.359375 -144.863281 Z M 106.359375 -164.175781 C 109.050781 -164.175781 111.222656 -164.058594 112.878906 -163.824219 L 111.511719 -154.261719 L 112.347656 -163.882812 C 114.203125 -163.722656 115.863281 -164.085938 117.328125 -164.972656 C 118.136719 -165.460938 118.605469 -166.0625 118.742188 -166.777344 L 120.0625 -174.164062 L 120.101562 -174.339844 C 120.375 -175.601562 120.121094 -176.808594 119.34375 -177.960938 C 118.652344 -178.988281 117.816406 -179.5625 116.835938 -179.691406 C 109.824219 -180.507812 103.328125 -180.914062 97.347656 -180.914062 C 81.796875 -180.914062 70.074219 -177 62.167969 -169.164062 C 54.289062 -161.351562 50.347656 -149.605469 50.347656 -133.917969 L 50.347656 -131.085938 C 50.347656 -127.644531 49.210938 -124.789062 46.941406 -122.515625 C 44.667969 -120.246094 41.8125 -119.109375 38.371094 -119.109375 L 25.753906 -119.109375 C 24.472656 -119.109375 23.3125 -118.589844 22.28125 -117.558594 C 21.25 -116.527344 20.730469 -115.367188 20.730469 -114.085938 L 20.730469 -109.964844 C 20.730469 -108.683594 21.25 -107.527344 22.28125 -106.496094 C 23.3125 -105.460938 24.472656 -104.945312 25.753906 -104.945312 L 38.371094 -104.945312 C 41.8125 -104.945312 44.667969 -103.808594 46.941406 -101.535156 C 49.210938 -99.265625 50.347656 -96.410156 50.347656 -92.96875 L 50.347656 -14.679688 C 50.347656 -13.398438 50.863281 -12.238281 51.898438 -11.207031 C 52.929688 -10.175781 54.085938 -9.65625 55.371094 -9.65625 L 75.972656 -9.65625 C 77.253906 -9.65625 78.410156 -10.175781 79.445312 -11.207031 C 80.476562 -12.238281 80.992188 -13.398438 80.992188 -14.679688 L 80.992188 -92.96875 C 80.992188 -96.410156 82.128906 -99.265625 84.402344 -101.535156 C 86.671875 -103.808594 89.53125 -104.945312 92.96875 -104.945312 L 114.859375 -104.945312 C 116.140625 -104.945312 117.296875 -105.460938 118.332031 -106.496094 C 119.363281 -107.527344 119.878906 -108.683594 119.878906 -109.964844 L 119.878906 -114.085938 C 119.878906 -115.367188 119.363281 -116.527344 118.332031 -117.558594 C 117.296875 -118.589844 116.140625 -119.109375 114.859375 -119.109375 L 92.96875 -119.109375 C 89.53125 -119.109375 86.671875 -120.246094 84.402344 -122.515625 C 82.128906 -124.789062 80.992188 -127.644531 80.992188 -131.085938 L 80.992188 -133.917969 C 80.992188 -144.21875 82.800781 -151.660156 86.414062 -156.246094 C 90.578125 -161.535156 97.226562 -164.175781 106.359375 -164.175781 Z M 106.359375 -164.175781 "/></g></g></g><g fill="#ffffff" fill-opacity="1"><g transform="translate(440.867959, 271.044706)"><g><path d="M 65.871094 -46.542969 L 86.21875 -122.257812 C 88.027344 -128.476562 91.410156 -133.550781 96.359375 -137.484375 C 101.464844 -141.546875 107.289062 -143.574219 113.828125 -143.574219 L 136.234375 -143.574219 C 139.578125 -143.574219 142.632812 -142.871094 145.402344 -141.464844 C 148.242188 -140.027344 150.617188 -137.933594 152.527344 -135.191406 C 154.429688 -132.464844 155.570312 -129.527344 155.960938 -126.375 C 156.335938 -123.3125 155.976562 -120.214844 154.878906 -117.078125 L 95.347656 46.3125 C 93.074219 52.382812 89.300781 57.234375 84.035156 60.871094 C 78.777344 64.5 73 66.316406 66.699219 66.316406 L 44.296875 66.316406 C 40.996094 66.316406 37.964844 65.59375 35.210938 64.148438 C 32.464844 62.710938 30.148438 60.636719 28.261719 57.929688 C 26.3125 55.136719 25.179688 52.140625 24.867188 48.945312 C 24.554688 45.796875 25.058594 42.652344 26.378906 39.515625 L 43.074219 -1.574219 L 52.023438 2.058594 L 42.976562 -1.332031 C 42.644531 -0.445312 42.644531 0.445312 42.976562 1.332031 L -2.320312 -116.808594 C -3.496094 -119.988281 -3.886719 -123.128906 -3.5 -126.230469 C -3.113281 -129.304688 -1.996094 -132.214844 -0.144531 -134.949219 C 1.726562 -137.71875 4.035156 -139.84375 6.777344 -141.320312 C 9.558594 -142.824219 12.625 -143.574219 15.96875 -143.574219 L 40.949219 -143.574219 C 47.53125 -143.574219 53.34375 -141.519531 58.382812 -137.410156 C 63.414062 -133.304688 66.589844 -128.078125 67.914062 -121.722656 L 84.085938 -45.046875 L 84.085938 -44.039062 C 84.085938 -46.621094 83.164062 -48.832031 81.320312 -50.675781 C 79.476562 -52.515625 77.265625 -53.4375 74.683594 -53.4375 C 73.335938 -53.4375 72.023438 -53.121094 70.75 -52.484375 C 69.265625 -51.738281 68.058594 -50.671875 67.132812 -49.28125 C 66.070312 -47.691406 65.542969 -45.945312 65.542969 -44.039062 L 65.542969 -45.3125 Z M 84.527344 -41.53125 L 75.199219 -44.039062 L 84.859375 -44.039062 C 84.859375 -42.046875 84.304688 -40.222656 83.203125 -38.566406 C 82.234375 -37.113281 80.960938 -35.992188 79.390625 -35.207031 C 77.945312 -34.484375 76.375 -34.121094 74.683594 -34.121094 C 71.929688 -34.121094 69.589844 -35.085938 67.660156 -37.015625 C 65.734375 -38.945312 64.769531 -41.285156 64.769531 -44.039062 L 74.425781 -44.039062 L 64.976562 -42.046875 L 49.003906 -117.78125 C 48.613281 -119.667969 47.667969 -121.222656 46.175781 -122.441406 C 44.6875 -123.652344 42.945312 -124.257812 40.949219 -124.257812 L 15.96875 -124.257812 C 15.863281 -124.257812 15.796875 -124.253906 15.761719 -124.246094 C 15.820312 -124.261719 15.882812 -124.285156 15.949219 -124.324219 C 16.007812 -124.355469 16.046875 -124.378906 16.070312 -124.402344 C 16.015625 -124.347656 15.941406 -124.257812 15.855469 -124.128906 C 15.761719 -123.988281 15.695312 -123.875 15.660156 -123.785156 C 15.660156 -123.789062 15.664062 -123.804688 15.667969 -123.835938 C 15.671875 -123.871094 15.671875 -123.898438 15.671875 -123.910156 C 15.679688 -123.839844 15.695312 -123.777344 15.714844 -123.726562 L 61.066406 -5.453125 C 62.425781 -1.816406 62.425781 1.816406 61.066406 5.453125 L 61.019531 5.574219 L 44.183594 47.011719 C 44.128906 47.144531 44.097656 47.234375 44.085938 47.292969 C 44.097656 47.226562 44.097656 47.148438 44.089844 47.050781 C 44.078125 46.9375 44.054688 46.839844 44.023438 46.757812 C 44.027344 46.769531 44.054688 46.8125 44.105469 46.886719 C 44.183594 46.996094 44.246094 47.074219 44.292969 47.117188 C 44.269531 47.09375 44.226562 47.066406 44.171875 47.039062 C 44.117188 47.007812 44.066406 46.988281 44.027344 46.980469 C 44.082031 46.992188 44.171875 47 44.296875 47 L 66.699219 47 C 68.984375 47 71.105469 46.324219 73.058594 44.976562 C 75.003906 43.632812 76.382812 41.875 77.199219 39.703125 L 136.648438 -123.457031 C 136.75 -123.753906 136.796875 -123.9375 136.789062 -124.011719 C 136.792969 -123.976562 136.800781 -123.953125 136.808594 -123.933594 C 136.789062 -123.980469 136.746094 -124.050781 136.679688 -124.144531 C 136.621094 -124.234375 136.574219 -124.289062 136.542969 -124.320312 C 136.570312 -124.292969 136.609375 -124.269531 136.660156 -124.242188 L 136.699219 -124.222656 C 136.585938 -124.246094 136.429688 -124.257812 136.234375 -124.257812 L 113.828125 -124.257812 C 111.785156 -124.257812 109.96875 -123.628906 108.378906 -122.363281 C 106.632812 -120.976562 105.464844 -119.269531 104.871094 -117.246094 Z M 84.527344 -41.53125 "/></g></g></g><g fill="#000000" fill-opacity="1"><g transform="translate(0.255578, 271.044706)"><g><path d="M 63.359375 -108.421875 C 75.203125 -123.359375 90.738281 -132.375 109.96875 -135.46875 C 113.914062 -136.144531 117.304688 -135.066406 120.140625 -132.234375 C 122.972656 -129.410156 124.390625 -125.9375 124.390625 -121.8125 L 124.390625 -112.546875 C 124.390625 -108.597656 122.972656 -105.160156 120.140625 -102.234375 C 117.304688 -99.316406 113.828125 -97.601562 109.703125 -97.09375 C 80.691406 -93.488281 66.1875 -80.007812 66.1875 -56.65625 L 66.1875 -14.671875 C 66.1875 -10.722656 64.722656 -7.289062 61.796875 -4.375 C 58.878906 -1.457031 55.445312 0 51.5 0 L 30.90625 0 C 26.957031 0 23.519531 -1.457031 20.59375 -4.375 C 17.675781 -7.289062 16.21875 -10.722656 16.21875 -14.671875 L 16.21875 -119.234375 C 16.21875 -123.179688 17.675781 -126.613281 20.59375 -129.53125 C 23.519531 -132.457031 26.957031 -133.921875 30.90625 -133.921875 L 47.640625 -133.921875 C 51.585938 -133.921875 55.0625 -132.457031 58.0625 -129.53125 C 61.070312 -126.613281 62.578125 -123.179688 62.578125 -119.234375 L 62.578125 -108.421875 C 62.578125 -108.242188 62.664062 -108.15625 62.84375 -108.15625 C 63.1875 -108.15625 63.359375 -108.242188 63.359375 -108.421875 Z M 63.359375 -108.421875 "/></g></g></g><g fill="#000000" fill-opacity="1"><g transform="translate(110.988118, 271.044706)"><g><path d="M 98.640625 -65.671875 L 98.640625 -68.25 C 98.640625 -78.03125 96.660156 -85.625 92.703125 -91.03125 C 88.753906 -96.445312 83.4375 -99.15625 76.75 -99.15625 C 69.875 -99.15625 64.503906 -96.445312 60.640625 -91.03125 C 56.785156 -85.625 54.859375 -77.597656 54.859375 -66.953125 C 54.859375 -56.648438 56.914062 -48.707031 61.03125 -43.125 C 65.15625 -37.550781 70.394531 -34.765625 76.75 -34.765625 C 83.4375 -34.765625 88.753906 -37.425781 92.703125 -42.75 C 96.660156 -48.070312 98.640625 -55.710938 98.640625 -65.671875 Z M 98.640625 -118.71875 L 98.640625 -178.46875 C 98.640625 -182.414062 100.097656 -185.847656 103.015625 -188.765625 C 105.929688 -191.679688 109.363281 -193.140625 113.3125 -193.140625 L 132.890625 -193.140625 C 136.835938 -193.140625 140.269531 -191.679688 143.1875 -188.765625 C 146.101562 -185.847656 147.5625 -182.414062 147.5625 -178.46875 L 147.5625 -14.671875 C 147.5625 -10.722656 146.101562 -7.289062 143.1875 -4.375 C 140.269531 -1.457031 136.835938 0 132.890625 0 L 117.171875 0 C 113.054688 0 109.535156 -1.414062 106.609375 -4.25 C 103.691406 -7.082031 102.0625 -10.554688 101.71875 -14.671875 L 101.46875 -17.765625 C 101.46875 -17.941406 101.378906 -18.03125 101.203125 -18.03125 C 101.035156 -18.03125 100.863281 -17.941406 100.6875 -17.765625 C 89.875 -4.203125 76.738281 2.578125 61.28125 2.578125 C 45.832031 2.578125 33.171875 -3.601562 23.296875 -15.96875 C 13.429688 -28.332031 8.5 -45.328125 8.5 -66.953125 C 8.5 -89.097656 13.257812 -106.222656 22.78125 -118.328125 C 32.3125 -130.429688 45.148438 -136.484375 61.296875 -136.484375 C 75.546875 -136.484375 87.734375 -130.5625 97.859375 -118.71875 C 98.035156 -118.550781 98.207031 -118.46875 98.375 -118.46875 C 98.550781 -118.46875 98.640625 -118.550781 98.640625 -118.71875 Z M 98.640625 -118.71875 "/></g></g></g><g fill="#000000" fill-opacity="1"><g transform="translate(251.335778, 271.044706)"><g><path d="M 21.375 -171.765625 L 21.375 -178.46875 C 21.375 -182.414062 22.832031 -185.847656 25.75 -188.765625 C 28.664062 -191.679688 32.097656 -193.140625 36.046875 -193.140625 L 58.203125 -193.140625 C 62.148438 -193.140625 65.582031 -191.679688 68.5 -188.765625 C 71.414062 -185.847656 72.875 -182.414062 72.875 -178.46875 L 72.875 -171.765625 C 72.875 -167.816406 71.414062 -164.382812 68.5 -161.46875 C 65.582031 -158.550781 62.148438 -157.09375 58.203125 -157.09375 L 36.046875 -157.09375 C 32.097656 -157.09375 28.664062 -158.550781 25.75 -161.46875 C 22.832031 -164.382812 21.375 -167.816406 21.375 -171.765625 Z M 21.375 -14.671875 L 21.375 -119.234375 C 21.375 -123.179688 22.832031 -126.613281 25.75 -129.53125 C 28.664062 -132.457031 32.097656 -133.921875 36.046875 -133.921875 L 58.203125 -133.921875 C 62.148438 -133.921875 65.582031 -132.457031 68.5 -129.53125 C 71.414062 -126.613281 72.875 -123.179688 72.875 -119.234375 L 72.875 -14.671875 C 72.875 -10.722656 71.414062 -7.289062 68.5 -4.375 C 65.582031 -1.457031 62.148438 0 58.203125 0 L 36.046875 0 C 32.097656 0 28.664062 -1.457031 25.75 -4.375 C 22.832031 -7.289062 21.375 -10.722656 21.375 -14.671875 Z M 21.375 -14.671875 "/></g></g></g><g fill="#000000" fill-opacity="1"><g transform="translate(320.864642, 271.044706)"><g><path d="M 106.359375 -154.515625 C 100.347656 -154.515625 96.226562 -153.097656 94 -150.265625 C 91.769531 -147.429688 90.65625 -141.984375 90.65625 -133.921875 L 90.65625 -131.078125 C 90.65625 -129.535156 91.425781 -128.765625 92.96875 -128.765625 L 114.859375 -128.765625 C 118.804688 -128.765625 122.238281 -127.304688 125.15625 -124.390625 C 128.070312 -121.472656 129.53125 -118.039062 129.53125 -114.09375 L 129.53125 -109.96875 C 129.53125 -106.019531 128.070312 -102.582031 125.15625 -99.65625 C 122.238281 -96.738281 118.804688 -95.28125 114.859375 -95.28125 L 92.96875 -95.28125 C 91.425781 -95.28125 90.65625 -94.507812 90.65625 -92.96875 L 90.65625 -14.671875 C 90.65625 -10.722656 89.191406 -7.289062 86.265625 -4.375 C 83.347656 -1.457031 79.914062 0 75.96875 0 L 55.375 0 C 51.425781 0 47.988281 -1.457031 45.0625 -4.375 C 42.144531 -7.289062 40.6875 -10.722656 40.6875 -14.671875 L 40.6875 -92.96875 C 40.6875 -94.507812 39.914062 -95.28125 38.375 -95.28125 L 25.75 -95.28125 C 21.800781 -95.28125 18.367188 -96.738281 15.453125 -99.65625 C 12.535156 -102.582031 11.078125 -106.019531 11.078125 -109.96875 L 11.078125 -114.09375 C 11.078125 -118.039062 12.535156 -121.472656 15.453125 -124.390625 C 18.367188 -127.304688 21.800781 -128.765625 25.75 -128.765625 L 38.375 -128.765625 C 39.914062 -128.765625 40.6875 -129.535156 40.6875 -131.078125 L 40.6875 -133.921875 C 40.6875 -152.285156 45.578125 -166.316406 55.359375 -176.015625 C 65.148438 -185.722656 79.144531 -190.578125 97.34375 -190.578125 C 103.695312 -190.578125 110.566406 -190.144531 117.953125 -189.28125 C 121.898438 -188.769531 125.03125 -186.796875 127.34375 -183.359375 C 129.664062 -179.929688 130.394531 -176.238281 129.53125 -172.28125 L 128.25 -165.078125 C 127.5625 -161.472656 125.585938 -158.679688 122.328125 -156.703125 C 119.066406 -154.734375 115.460938 -153.921875 111.515625 -154.265625 C 110.304688 -154.429688 108.585938 -154.515625 106.359375 -154.515625 Z M 106.359375 -154.515625 "/></g></g></g><g fill="#000000" fill-opacity="1"><g transform="translate(440.867959, 271.044706)"><g><path d="M 75.203125 -44.03125 L 95.546875 -119.75 C 96.742188 -123.875 99.015625 -127.265625 102.359375 -129.921875 C 105.710938 -132.585938 109.535156 -133.921875 113.828125 -133.921875 L 136.234375 -133.921875 C 139.835938 -133.921875 142.625 -132.503906 144.59375 -129.671875 C 146.570312 -126.835938 146.960938 -123.703125 145.765625 -120.265625 L 86.265625 43 C 84.722656 47.125 82.148438 50.429688 78.546875 52.921875 C 74.941406 55.410156 70.992188 56.65625 66.703125 56.65625 L 44.296875 56.65625 C 40.859375 56.65625 38.148438 55.238281 36.171875 52.40625 C 34.203125 49.570312 33.90625 46.523438 35.28125 43.265625 L 52.015625 2.0625 C 52.535156 0.6875 52.535156 -0.6875 52.015625 -2.0625 L 6.703125 -120.265625 C 5.492188 -123.523438 5.875 -126.613281 7.84375 -129.53125 C 9.820312 -132.457031 12.53125 -133.921875 15.96875 -133.921875 L 40.953125 -133.921875 C 45.242188 -133.921875 49.019531 -132.585938 52.28125 -129.921875 C 55.539062 -127.265625 57.597656 -123.875 58.453125 -119.75 L 74.421875 -44.03125 C 74.421875 -43.863281 74.507812 -43.78125 74.6875 -43.78125 C 75.03125 -43.78125 75.203125 -43.863281 75.203125 -44.03125 Z M 75.203125 -44.03125 "/></g></g></g></g></g><g transform="matrix(1, 0, 0, 1, 863, 785)"><g clip-path="url(#e1e1c862af)"><g fill="#ffffff" fill-opacity="1"><g transform="translate(5.031853, 59.89676)"><g><path d="M -2.785156 -3.285156 L -2.785156 -8.824219 C -2.785156 -10.292969 -2.5 -11.695312 -1.933594 -13.023438 C -1.390625 -14.308594 -0.605469 -15.464844 0.414062 -16.484375 C 1.433594 -17.503906 2.585938 -18.285156 3.871094 -18.832031 C 5.203125 -19.398438 6.601562 -19.679688 8.074219 -19.679688 L 14.1875 -19.679688 C 15.65625 -19.679688 17.054688 -19.398438 18.386719 -18.832031 C 19.671875 -18.285156 20.828125 -17.503906 21.847656 -16.484375 C 22.867188 -15.464844 23.648438 -14.308594 24.195312 -13.023438 C 24.761719 -11.695312 25.042969 -10.292969 25.042969 -8.824219 L 25.042969 -3.285156 C 25.042969 -1.816406 24.761719 -0.417969 24.195312 0.914062 C 23.648438 2.199219 22.867188 3.351562 21.847656 4.371094 C 20.828125 5.390625 19.671875 6.175781 18.386719 6.722656 C 17.058594 7.289062 15.65625 7.570312 14.1875 7.570312 L 8.074219 7.570312 C 6.601562 7.570312 5.203125 7.289062 3.871094 6.722656 C 2.585938 6.175781 1.433594 5.390625 0.414062 4.371094 C -0.605469 3.351562 -1.390625 2.199219 -1.933594 0.914062 C -2.5 -0.417969 -2.785156 -1.816406 -2.785156 -3.285156 Z M 12.355469 -3.285156 C 12.355469 -3.871094 12.238281 -4.445312 12 -5.007812 C 11.777344 -5.527344 11.484375 -5.96875 11.121094 -6.332031 C 10.753906 -6.699219 10.3125 -6.992188 9.792969 -7.210938 C 9.234375 -7.449219 8.660156 -7.570312 8.074219 -7.570312 L 14.1875 -7.570312 C 13.601562 -7.570312 13.027344 -7.449219 12.464844 -7.210938 C 11.949219 -6.992188 11.507812 -6.699219 11.140625 -6.332031 C 10.773438 -5.96875 10.480469 -5.527344 10.261719 -5.007812 C 10.023438 -4.445312 9.902344 -3.871094 9.902344 -3.285156 L 9.902344 -8.824219 C 9.902344 -8.238281 10.023438 -7.664062 10.261719 -7.101562 C 10.480469 -6.585938 10.773438 -6.144531 11.140625 -5.777344 C 11.507812 -5.410156 11.949219 -5.117188 12.464844 -4.898438 C 13.027344 -4.660156 13.601562 -4.539062 14.1875 -4.539062 L 8.074219 -4.539062 C 8.660156 -4.539062 9.234375 -4.660156 9.792969 -4.898438 C 10.3125 -5.117188 10.753906 -5.410156 11.121094 -5.777344 C 11.484375 -6.144531 11.777344 -6.585938 12 -7.101562 C 12.238281 -7.664062 12.355469 -8.238281 12.355469 -8.824219 Z M 12.355469 -3.285156 "/></g></g></g><g fill="#ffffff" fill-opacity="1"><g transform="translate(21.799486, 59.89676)"><g><path d="M 20.292969 -34.128906 C 27.519531 -32.195312 32.820312 -29.6875 36.191406 -26.609375 C 38.226562 -24.746094 39.765625 -22.597656 40.808594 -20.15625 C 41.832031 -17.769531 42.34375 -15.183594 42.34375 -12.398438 C 42.34375 -9.191406 41.753906 -6.289062 40.570312 -3.683594 C 39.3125 -0.90625 37.441406 1.417969 34.957031 3.296875 C 30.6875 6.53125 24.761719 8.148438 17.183594 8.148438 C 11.992188 8.148438 6.949219 7.007812 2.054688 4.730469 C 0.726562 4.125 -0.433594 3.28125 -1.425781 2.191406 C -2.390625 1.128906 -3.125 -0.0976562 -3.628906 -1.492188 C -4.507812 -3.914062 -4.59375 -6.386719 -3.886719 -8.902344 L -3.144531 -11.589844 C -2.65625 -13.226562 -1.875 -14.613281 -0.800781 -15.746094 C 0.25 -16.859375 1.515625 -17.691406 2.992188 -18.246094 C 4.390625 -18.769531 5.820312 -18.988281 7.273438 -18.894531 C 8.722656 -18.800781 10.109375 -18.40625 11.425781 -17.714844 C 13.804688 -16.527344 15.914062 -15.933594 17.761719 -15.933594 C 18.027344 -15.933594 18.195312 -15.941406 18.261719 -15.957031 C 17.941406 -15.878906 17.597656 -15.707031 17.222656 -15.4375 C 16.582031 -14.972656 16.09375 -14.375 15.753906 -13.644531 C 15.503906 -13.105469 15.382812 -12.59375 15.382812 -12.109375 C 15.382812 -11.246094 15.585938 -10.433594 15.992188 -9.671875 C 16.28125 -9.136719 16.625 -8.707031 17.023438 -8.382812 C 17.105469 -8.316406 17.179688 -8.261719 17.242188 -8.226562 L 17.246094 -8.222656 C 17.226562 -8.234375 17.207031 -8.242188 17.179688 -8.257812 C 16.953125 -8.359375 16.644531 -8.46875 16.246094 -8.582031 C 9.445312 -10.539062 4.402344 -13.078125 1.125 -16.199219 C -0.839844 -18.066406 -2.324219 -20.210938 -3.328125 -22.625 C -4.308594 -24.988281 -4.800781 -27.539062 -4.800781 -30.277344 C -4.800781 -33.335938 -4.183594 -36.140625 -2.949219 -38.691406 C -1.695312 -41.285156 0.140625 -43.503906 2.558594 -45.347656 C 6.835938 -48.613281 12.480469 -50.246094 19.492188 -50.246094 C 24.304688 -50.246094 28.851562 -49.570312 33.128906 -48.222656 C 34.53125 -47.796875 35.800781 -47.097656 36.933594 -46.128906 C 38.023438 -45.195312 38.90625 -44.066406 39.582031 -42.746094 C 40.835938 -40.296875 41.183594 -37.738281 40.628906 -35.074219 L 40.601562 -34.949219 L 39.9375 -32.226562 L 32.582031 -34.023438 L 40.019531 -32.609375 C 39.714844 -31.015625 39.078125 -29.59375 38.105469 -28.335938 C 37.171875 -27.128906 35.996094 -26.171875 34.582031 -25.464844 C 33.25 -24.796875 31.855469 -24.429688 30.398438 -24.359375 C 28.949219 -24.289062 27.53125 -24.515625 26.140625 -25.046875 C 24.085938 -25.792969 22.0625 -26.164062 20.070312 -26.164062 C 19.742188 -26.164062 19.523438 -26.152344 19.402344 -26.125 C 19.652344 -26.183594 19.9375 -26.324219 20.261719 -26.546875 C 20.785156 -26.90625 21.21875 -27.398438 21.5625 -28.023438 C 21.960938 -28.746094 22.160156 -29.496094 22.160156 -30.277344 C 22.160156 -30.957031 22.015625 -31.621094 21.722656 -32.265625 C 21.457031 -32.855469 21.105469 -33.355469 20.660156 -33.761719 C 20.4375 -33.96875 20.230469 -34.121094 20.042969 -34.210938 C 20.085938 -34.191406 20.191406 -34.15625 20.359375 -34.109375 Z M 16.316406 -19.519531 C 13.890625 -20.191406 11.914062 -21.230469 10.390625 -22.636719 C 9.324219 -23.621094 8.503906 -24.753906 7.925781 -26.035156 C 7.320312 -27.371094 7.019531 -28.785156 7.019531 -30.277344 C 7.019531 -32.09375 7.449219 -33.78125 8.308594 -35.339844 C 9.113281 -36.800781 10.242188 -38.027344 11.683594 -39.023438 C 13.898438 -40.542969 16.695312 -41.304688 20.070312 -41.304688 C 23.839844 -41.304688 27.660156 -40.601562 31.527344 -39.195312 C 30.945312 -39.417969 30.324219 -39.511719 29.660156 -39.480469 C 28.996094 -39.449219 28.378906 -39.289062 27.8125 -39.007812 C 27.167969 -38.683594 26.609375 -38.21875 26.136719 -37.605469 C 25.625 -36.945312 25.296875 -36.226562 25.144531 -35.441406 L 25.183594 -35.632812 L 25.863281 -38.417969 L 33.214844 -36.617188 L 25.804688 -38.164062 C 25.636719 -37.34375 25.734375 -36.574219 26.101562 -35.855469 C 26.335938 -35.398438 26.664062 -34.988281 27.09375 -34.621094 C 27.5625 -34.21875 28.058594 -33.941406 28.578125 -33.78125 C 25.78125 -34.664062 22.75 -35.105469 19.492188 -35.105469 C 15.890625 -35.105469 13.308594 -34.507812 11.742188 -33.3125 C 11.238281 -32.925781 10.882812 -32.519531 10.675781 -32.09375 C 10.453125 -31.628906 10.339844 -31.019531 10.339844 -30.277344 C 10.339844 -29.554688 10.441406 -28.941406 10.652344 -28.441406 C 10.839844 -27.992188 11.140625 -27.566406 11.5625 -27.167969 C 12.183594 -26.574219 13.144531 -25.964844 14.4375 -25.335938 C 16.042969 -24.554688 18.042969 -23.820312 20.429688 -23.132812 C 22.957031 -22.40625 25.003906 -21.40625 26.570312 -20.132812 C 27.742188 -19.183594 28.664062 -18.082031 29.332031 -16.832031 C 30.125 -15.359375 30.523438 -13.78125 30.523438 -12.109375 C 30.523438 -10.378906 30.179688 -8.773438 29.5 -7.296875 C 28.730469 -5.628906 27.59375 -4.25 26.085938 -3.160156 C 23.898438 -1.582031 21.125 -0.792969 17.761719 -0.792969 C 13.53125 -0.792969 9.070312 -1.964844 4.375 -4.316406 C 4.960938 -4.007812 5.605469 -3.828125 6.304688 -3.785156 C 7.011719 -3.738281 7.679688 -3.835938 8.308594 -4.070312 C 9.019531 -4.335938 9.648438 -4.761719 10.199219 -5.34375 C 10.773438 -5.949219 11.1875 -6.6875 11.449219 -7.554688 L 10.691406 -4.820312 C 10.859375 -5.417969 10.832031 -6.023438 10.609375 -6.640625 C 10.429688 -7.128906 10.152344 -7.582031 9.769531 -8 C 9.367188 -8.445312 8.921875 -8.777344 8.441406 -8.996094 C 11.3125 -7.660156 14.226562 -6.992188 17.183594 -6.992188 C 19.503906 -6.992188 21.457031 -7.195312 23.054688 -7.59375 C 24.257812 -7.898438 25.183594 -8.289062 25.824219 -8.777344 C 26.261719 -9.109375 26.582031 -9.496094 26.785156 -9.941406 C 27.0625 -10.554688 27.203125 -11.375 27.203125 -12.398438 C 27.203125 -13.113281 27.101562 -13.714844 26.890625 -14.199219 C 26.707031 -14.632812 26.402344 -15.042969 25.976562 -15.433594 C 25.335938 -16.019531 24.316406 -16.628906 22.917969 -17.265625 C 21.175781 -18.058594 18.996094 -18.804688 16.382812 -19.503906 Z M 16.316406 -19.519531 "/></g></g></g><g fill="#ffffff" fill-opacity="1"><g transform="translate(53.782669, 59.89676)"><g><path d="M -4.800781 -35.871094 L -4.800781 -38.808594 C -4.800781 -40.28125 -4.519531 -41.679688 -3.953125 -43.011719 C -3.40625 -44.296875 -2.625 -45.449219 -1.605469 -46.46875 C -0.585938 -47.488281 0.566406 -48.273438 1.855469 -48.820312 C 3.183594 -49.386719 4.585938 -49.667969 6.054688 -49.667969 L 34.082031 -49.667969 C 35.550781 -49.667969 36.953125 -49.386719 38.28125 -48.820312 C 39.570312 -48.273438 40.722656 -47.488281 41.742188 -46.46875 C 42.761719 -45.449219 43.542969 -44.296875 44.089844 -43.011719 C 44.65625 -41.679688 44.9375 -40.28125 44.9375 -38.808594 L 44.9375 -35.871094 C 44.9375 -34.398438 44.65625 -33 44.089844 -31.667969 C 43.542969 -30.382812 42.761719 -29.230469 41.742188 -28.210938 C 40.722656 -27.191406 39.570312 -26.40625 38.28125 -25.859375 C 36.953125 -25.292969 35.550781 -25.011719 34.082031 -25.011719 L 26.46875 -25.011719 C 27.203125 -25.011719 27.925781 -25.132812 28.636719 -25.367188 C 29.703125 -25.722656 30.632812 -26.300781 31.433594 -27.101562 C 32.230469 -27.898438 32.808594 -28.832031 33.164062 -29.898438 C 33.402344 -30.609375 33.519531 -31.332031 33.519531 -32.0625 L 33.519531 -3.285156 C 33.519531 -1.84375 33.25 -0.46875 32.710938 0.839844 C 32.183594 2.121094 31.421875 3.269531 30.429688 4.292969 C 29.414062 5.339844 28.25 6.148438 26.945312 6.707031 C 25.613281 7.28125 24.203125 7.570312 22.722656 7.570312 L 17.414062 7.570312 C 15.933594 7.570312 14.523438 7.28125 13.191406 6.707031 C 11.886719 6.148438 10.722656 5.339844 9.707031 4.292969 C 8.714844 3.269531 7.953125 2.121094 7.425781 0.839844 C 6.886719 -0.46875 6.617188 -1.84375 6.617188 -3.285156 L 6.617188 -32.0625 C 6.617188 -31.332031 6.734375 -30.609375 6.972656 -29.898438 C 7.328125 -28.832031 7.90625 -27.898438 8.703125 -27.101562 C 9.503906 -26.300781 10.433594 -25.722656 11.5 -25.367188 C 12.210938 -25.132812 12.933594 -25.011719 13.667969 -25.011719 L 6.054688 -25.011719 C 4.585938 -25.011719 3.183594 -25.292969 1.855469 -25.859375 C 0.566406 -26.40625 -0.585938 -27.191406 -1.605469 -28.210938 C -2.625 -29.230469 -3.40625 -30.382812 -3.953125 -31.667969 C -4.519531 -33 -4.800781 -34.398438 -4.800781 -35.871094 Z M 10.339844 -35.871094 C 10.339844 -36.457031 10.21875 -37.027344 9.980469 -37.589844 C 9.761719 -38.109375 9.46875 -38.550781 9.101562 -38.914062 C 8.734375 -39.28125 8.292969 -39.574219 7.777344 -39.792969 C 7.214844 -40.03125 6.640625 -40.152344 6.054688 -40.152344 L 13.667969 -40.152344 C 14.574219 -40.152344 15.445312 -40.011719 16.289062 -39.730469 C 17.484375 -39.332031 18.523438 -38.691406 19.410156 -37.804688 C 20.296875 -36.917969 20.9375 -35.878906 21.335938 -34.683594 C 21.617188 -33.84375 21.757812 -32.96875 21.757812 -32.0625 L 21.757812 -3.285156 C 21.757812 -3.84375 21.644531 -4.394531 21.421875 -4.933594 C 21.210938 -5.445312 20.925781 -5.882812 20.570312 -6.253906 C 20.1875 -6.648438 19.722656 -6.964844 19.175781 -7.199219 C 18.601562 -7.445312 18.011719 -7.570312 17.414062 -7.570312 L 22.722656 -7.570312 C 22.125 -7.570312 21.535156 -7.445312 20.960938 -7.199219 C 20.414062 -6.964844 19.949219 -6.648438 19.566406 -6.253906 C 19.210938 -5.882812 18.925781 -5.445312 18.714844 -4.933594 C 18.492188 -4.394531 18.378906 -3.84375 18.378906 -3.285156 L 18.378906 -32.0625 C 18.378906 -32.96875 18.519531 -33.84375 18.800781 -34.683594 C 19.199219 -35.878906 19.839844 -36.917969 20.726562 -37.804688 C 21.613281 -38.691406 22.652344 -39.332031 23.847656 -39.730469 C 24.691406 -40.011719 25.5625 -40.152344 26.46875 -40.152344 L 34.082031 -40.152344 C 33.496094 -40.152344 32.921875 -40.03125 32.359375 -39.792969 C 31.84375 -39.574219 31.402344 -39.28125 31.035156 -38.914062 C 30.667969 -38.550781 30.375 -38.109375 30.15625 -37.589844 C 29.917969 -37.027344 29.796875 -36.457031 29.796875 -35.871094 L 29.796875 -38.808594 C 29.796875 -38.226562 29.917969 -37.652344 30.15625 -37.089844 C 30.375 -36.570312 30.667969 -36.128906 31.035156 -35.765625 C 31.402344 -35.398438 31.84375 -35.105469 32.359375 -34.886719 C 32.921875 -34.648438 33.496094 -34.527344 34.082031 -34.527344 L 6.054688 -34.527344 C 6.640625 -34.527344 7.214844 -34.648438 7.777344 -34.886719 C 8.292969 -35.105469 8.734375 -35.398438 9.101562 -35.765625 C 9.46875 -36.128906 9.761719 -36.570312 9.980469 -37.089844 C 10.21875 -37.652344 10.339844 -38.226562 10.339844 -38.808594 Z M 10.339844 -35.871094 "/></g></g></g><g fill="#ffffff" fill-opacity="1"><g transform="translate(88.417055, 59.89676)"><g><path d="M 21.007812 -21.046875 C 21.007812 -19.699219 21.125 -18.589844 21.359375 -17.722656 C 21.488281 -17.238281 21.625 -16.910156 21.769531 -16.730469 C 21.777344 -16.722656 21.796875 -16.710938 21.832031 -16.695312 C 22.136719 -16.570312 22.605469 -16.507812 23.238281 -16.507812 C 23.875 -16.507812 24.34375 -16.570312 24.648438 -16.695312 C 24.679688 -16.710938 24.703125 -16.722656 24.707031 -16.730469 C 24.855469 -16.910156 24.992188 -17.238281 25.121094 -17.722656 C 25.355469 -18.589844 25.472656 -19.699219 25.472656 -21.046875 C 25.472656 -22.398438 25.355469 -23.507812 25.121094 -24.375 C 24.992188 -24.859375 24.855469 -25.1875 24.707031 -25.367188 C 24.703125 -25.375 24.679688 -25.386719 24.648438 -25.402344 C 24.34375 -25.527344 23.875 -25.589844 23.238281 -25.589844 C 22.605469 -25.589844 22.136719 -25.527344 21.832031 -25.402344 C 21.796875 -25.386719 21.777344 -25.375 21.769531 -25.367188 C 21.625 -25.1875 21.488281 -24.859375 21.359375 -24.375 C 21.125 -23.507812 21.007812 -22.398438 21.007812 -21.046875 Z M 5.867188 -21.046875 C 5.867188 -26.871094 7.246094 -31.488281 10.003906 -34.894531 C 11.628906 -36.90625 13.652344 -38.40625 16.070312 -39.402344 C 18.21875 -40.285156 20.609375 -40.730469 23.238281 -40.730469 C 25.871094 -40.730469 28.261719 -40.285156 30.410156 -39.402344 C 32.828125 -38.40625 34.847656 -36.90625 36.476562 -34.894531 C 39.234375 -31.488281 40.613281 -26.871094 40.613281 -21.046875 C 40.613281 -15.226562 39.234375 -10.609375 36.476562 -7.203125 C 34.847656 -5.191406 32.828125 -3.691406 30.410156 -2.695312 C 28.261719 -1.8125 25.871094 -1.367188 23.238281 -1.367188 C 20.609375 -1.367188 18.21875 -1.8125 16.070312 -2.695312 C 13.652344 -3.691406 11.628906 -5.191406 10.003906 -7.203125 C 7.246094 -10.609375 5.867188 -15.226562 5.867188 -21.046875 Z M 2.140625 -42.257812 C 4.871094 -44.960938 8.066406 -46.988281 11.726562 -48.332031 C 15.199219 -49.605469 19.035156 -50.246094 23.238281 -50.246094 C 27.445312 -50.246094 31.28125 -49.605469 34.753906 -48.332031 C 38.414062 -46.988281 41.609375 -44.960938 44.339844 -42.257812 C 47.085938 -39.539062 49.140625 -36.335938 50.503906 -32.648438 C 51.792969 -29.164062 52.4375 -25.296875 52.4375 -21.046875 C 52.4375 -16.800781 51.792969 -12.933594 50.503906 -9.449219 C 49.140625 -5.761719 47.085938 -2.558594 44.339844 0.160156 C 41.609375 2.863281 38.414062 4.890625 34.753906 6.234375 C 31.28125 7.507812 27.445312 8.148438 23.238281 8.148438 C 19.035156 8.148438 15.199219 7.507812 11.726562 6.234375 C 8.066406 4.890625 4.871094 2.863281 2.140625 0.160156 C -0.605469 -2.558594 -2.660156 -5.761719 -4.023438 -9.449219 C -5.3125 -12.933594 -5.957031 -16.800781 -5.957031 -21.046875 C -5.957031 -25.296875 -5.3125 -29.164062 -4.023438 -32.648438 C -2.660156 -36.335938 -0.605469 -39.539062 2.140625 -42.257812 Z M 12.792969 -31.5 C 11.636719 -30.355469 10.765625 -28.988281 10.179688 -27.398438 C 9.515625 -25.605469 9.183594 -23.492188 9.183594 -21.046875 C 9.183594 -18.605469 9.515625 -16.492188 10.179688 -14.699219 C 10.765625 -13.109375 11.636719 -11.742188 12.792969 -10.597656 C 13.964844 -9.4375 15.351562 -8.566406 16.949219 -7.976562 C 18.734375 -7.320312 20.832031 -6.992188 23.238281 -6.992188 C 25.648438 -6.992188 27.746094 -7.320312 29.53125 -7.976562 C 31.128906 -8.566406 32.515625 -9.4375 33.6875 -10.597656 C 34.84375 -11.742188 35.714844 -13.109375 36.300781 -14.699219 C 36.964844 -16.492188 37.296875 -18.605469 37.296875 -21.046875 C 37.296875 -23.492188 36.964844 -25.605469 36.300781 -27.398438 C 35.714844 -28.988281 34.84375 -30.355469 33.6875 -31.5 C 32.515625 -32.660156 31.128906 -33.53125 29.53125 -34.121094 C 27.746094 -34.777344 25.648438 -35.105469 23.238281 -35.105469 C 20.832031 -35.105469 18.734375 -34.777344 16.949219 -34.121094 C 15.351562 -33.53125 13.964844 -32.660156 12.792969 -31.5 Z M 12.792969 -31.5 "/></g></g></g><g fill="#ffffff" fill-opacity="1"><g transform="translate(129.39126, 59.89676)"><g><path d="M 18.625 -30.636719 C 18.765625 -30.636719 18.882812 -30.644531 18.972656 -30.65625 L 18.972656 -30.652344 C 18.753906 -30.582031 18.539062 -30.453125 18.320312 -30.265625 C 18 -29.988281 17.75 -29.644531 17.578125 -29.234375 C 17.457031 -28.957031 17.398438 -28.726562 17.398438 -28.546875 C 17.398438 -28.578125 17.398438 -28.605469 17.398438 -28.625 C 17.398438 -28.621094 17.398438 -28.609375 17.402344 -28.59375 C 17.421875 -28.484375 17.457031 -28.355469 17.511719 -28.214844 C 17.703125 -27.722656 18.011719 -27.292969 18.4375 -26.925781 C 18.746094 -26.65625 19.035156 -26.484375 19.308594 -26.40625 C 19.199219 -26.4375 18.972656 -26.453125 18.625 -26.453125 C 18.023438 -26.453125 17.496094 -26.421875 17.042969 -26.355469 L 15.972656 -33.851562 L 17.617188 -26.460938 C 18.246094 -26.601562 18.847656 -26.832031 19.421875 -27.152344 C 20.203125 -27.582031 20.875 -28.148438 21.445312 -28.839844 C 22.023438 -29.550781 22.449219 -30.335938 22.71875 -31.207031 C 22.921875 -31.867188 23.023438 -32.539062 23.023438 -33.214844 L 23.023438 -23.585938 C 23.023438 -24.230469 22.929688 -24.871094 22.742188 -25.507812 C 22.441406 -26.523438 21.9375 -27.429688 21.226562 -28.226562 C 20.4375 -29.117188 19.484375 -29.769531 18.371094 -30.1875 C 17.574219 -30.488281 16.753906 -30.636719 15.917969 -30.636719 Z M 18.625 -15.496094 L 15.917969 -15.496094 C 14.925781 -15.496094 13.972656 -15.667969 13.054688 -16.011719 C 11.828125 -16.472656 10.78125 -17.191406 9.914062 -18.167969 C 9.125 -19.050781 8.5625 -20.066406 8.226562 -21.207031 C 8 -21.976562 7.886719 -22.769531 7.886719 -23.585938 L 7.886719 -33.214844 C 7.886719 -35.191406 8.5 -36.929688 9.726562 -38.429688 C 10.917969 -39.886719 12.453125 -40.824219 14.332031 -41.242188 L 14.617188 -41.304688 L 14.902344 -41.34375 C 16.066406 -41.511719 17.308594 -41.59375 18.625 -41.59375 C 22.617188 -41.59375 25.855469 -40.523438 28.332031 -38.382812 C 29.816406 -37.101562 30.917969 -35.53125 31.636719 -33.667969 C 32.238281 -32.105469 32.539062 -30.398438 32.539062 -28.546875 C 32.539062 -26.671875 32.199219 -24.929688 31.511719 -23.316406 C 30.773438 -21.570312 29.671875 -20.066406 28.21875 -18.8125 C 25.664062 -16.601562 22.464844 -15.496094 18.625 -15.496094 Z M 32.21875 -24.925781 C 34.289062 -23.75 36.015625 -22.242188 37.398438 -20.402344 C 38.59375 -18.808594 39.664062 -16.722656 40.609375 -14.144531 L 43.683594 -5.625 C 44.234375 -4.046875 44.40625 -2.480469 44.191406 -0.925781 C 43.972656 0.683594 43.371094 2.15625 42.394531 3.5 C 41.441406 4.8125 40.253906 5.824219 38.835938 6.53125 C 37.453125 7.222656 35.964844 7.570312 34.371094 7.570312 L 29.121094 7.570312 C 26.503906 7.570312 24.136719 6.8125 22.011719 5.296875 C 19.78125 3.703125 18.289062 1.605469 17.53125 -0.996094 L 24.796875 -3.113281 L 17.59375 -0.785156 L 15.058594 -8.625 C 15.007812 -8.785156 14.964844 -8.90625 14.933594 -8.980469 L 14.933594 -8.988281 C 15.085938 -8.71875 15.320312 -8.445312 15.636719 -8.164062 C 16.078125 -7.773438 16.570312 -7.488281 17.113281 -7.308594 C 17.457031 -7.191406 17.769531 -7.136719 18.050781 -7.136719 L 15.917969 -7.136719 C 16.753906 -7.136719 17.574219 -7.285156 18.371094 -7.585938 C 19.484375 -8 20.4375 -8.65625 21.226562 -9.546875 C 21.9375 -10.34375 22.441406 -11.25 22.742188 -12.261719 C 22.929688 -12.898438 23.023438 -13.539062 23.023438 -14.1875 L 23.023438 -3.285156 C 23.023438 -1.816406 22.742188 -0.417969 22.175781 0.914062 C 21.628906 2.199219 20.847656 3.351562 19.828125 4.371094 C 18.808594 5.390625 17.65625 6.175781 16.367188 6.722656 C 15.039062 7.289062 13.636719 7.570312 12.167969 7.570312 L 7.496094 7.570312 C 6.027344 7.570312 4.625 7.289062 3.296875 6.722656 C 2.007812 6.175781 0.855469 5.390625 -0.164062 4.371094 C -1.183594 3.351562 -1.964844 2.199219 -2.511719 0.914062 C -3.078125 -0.417969 -3.359375 -1.816406 -3.359375 -3.285156 L -3.359375 -38.523438 C -3.359375 -39.875 -3.132812 -41.175781 -2.679688 -42.421875 C -2.226562 -43.660156 -1.566406 -44.800781 -0.699219 -45.835938 C 0.246094 -46.964844 1.359375 -47.859375 2.632812 -48.519531 C 3.910156 -49.183594 5.285156 -49.578125 6.753906 -49.699219 C 10.707031 -50.0625 14.859375 -50.246094 19.203125 -50.246094 C 26.652344 -50.246094 32.492188 -48.660156 36.722656 -45.488281 C 39.214844 -43.617188 41.085938 -41.273438 42.339844 -38.449219 C 43.496094 -35.847656 44.074219 -32.933594 44.074219 -29.699219 C 44.074219 -25.683594 42.847656 -21.976562 40.390625 -18.578125 C 38.027344 -15.300781 34.980469 -12.929688 31.257812 -11.46875 L 29.921875 -10.941406 L 28.488281 -10.941406 C 29.296875 -10.941406 30.085938 -11.070312 30.855469 -11.324219 C 31.980469 -11.699219 32.960938 -12.304688 33.796875 -13.144531 C 34.636719 -13.980469 35.242188 -14.960938 35.617188 -16.085938 C 35.871094 -16.855469 36 -17.644531 36 -18.453125 C 36 -19.605469 35.738281 -20.707031 35.214844 -21.753906 C 34.621094 -22.941406 33.769531 -23.90625 32.660156 -24.644531 C 31.398438 -25.488281 30.007812 -25.910156 28.488281 -25.910156 L 30.484375 -25.910156 Z M 24.753906 -11.753906 L 28.488281 -18.339844 L 28.488281 -10.769531 C 26.949219 -10.769531 25.542969 -11.195312 24.261719 -12.046875 C 23.140625 -12.796875 22.277344 -13.773438 21.671875 -14.980469 C 21.132812 -16.066406 20.859375 -17.222656 20.859375 -18.453125 C 20.859375 -19.28125 20.992188 -20.089844 21.253906 -20.871094 C 21.632812 -22.011719 22.246094 -23.003906 23.089844 -23.851562 C 23.9375 -24.695312 24.929688 -25.308594 26.070312 -25.6875 C 26.851562 -25.949219 27.660156 -26.082031 28.488281 -26.082031 L 28.488281 -18.511719 L 25.714844 -25.554688 C 26.683594 -25.9375 27.484375 -26.566406 28.117188 -27.441406 C 28.660156 -28.195312 28.933594 -28.945312 28.933594 -29.699219 C 28.933594 -30.789062 28.789062 -31.65625 28.503906 -32.300781 C 28.316406 -32.722656 28.027344 -33.082031 27.636719 -33.375 C 27.011719 -33.84375 26.109375 -34.226562 24.9375 -34.519531 C 23.375 -34.910156 21.464844 -35.105469 19.203125 -35.105469 C 15.320312 -35.105469 11.589844 -34.941406 8.011719 -34.609375 C 8.558594 -34.65625 9.089844 -34.8125 9.605469 -35.082031 C 10.125 -35.351562 10.554688 -35.695312 10.90625 -36.109375 C 11.175781 -36.433594 11.390625 -36.808594 11.546875 -37.234375 C 11.703125 -37.664062 11.78125 -38.09375 11.78125 -38.523438 L 11.78125 -3.285156 C 11.78125 -3.871094 11.660156 -4.445312 11.421875 -5.007812 C 11.203125 -5.527344 10.910156 -5.96875 10.542969 -6.332031 C 10.175781 -6.699219 9.734375 -6.992188 9.21875 -7.210938 C 8.65625 -7.449219 8.082031 -7.570312 7.496094 -7.570312 L 12.167969 -7.570312 C 11.582031 -7.570312 11.007812 -7.449219 10.445312 -7.210938 C 9.929688 -6.992188 9.488281 -6.699219 9.121094 -6.332031 C 8.753906 -5.96875 8.460938 -5.527344 8.242188 -5.007812 C 8.003906 -4.445312 7.886719 -3.871094 7.886719 -3.285156 L 7.886719 -14.1875 C 7.886719 -15.003906 8 -15.796875 8.226562 -16.5625 C 8.5625 -17.707031 9.125 -18.722656 9.914062 -19.605469 C 10.78125 -20.582031 11.828125 -21.300781 13.054688 -21.761719 C 13.972656 -22.105469 14.925781 -22.277344 15.917969 -22.277344 L 18.050781 -22.277344 C 19.40625 -22.277344 20.691406 -22.074219 21.898438 -21.671875 C 23.304688 -21.203125 24.558594 -20.484375 25.652344 -19.515625 C 27.359375 -18.011719 28.632812 -15.933594 29.460938 -13.289062 L 32.035156 -5.339844 L 32.066406 -5.234375 C 31.84375 -5.988281 31.425781 -6.585938 30.8125 -7.023438 C 30.304688 -7.386719 29.738281 -7.570312 29.121094 -7.570312 L 34.371094 -7.570312 C 33.582031 -7.570312 32.8125 -7.382812 32.066406 -7.007812 C 31.28125 -6.617188 30.644531 -6.082031 30.152344 -5.402344 C 29.636719 -4.695312 29.316406 -3.886719 29.191406 -2.980469 C 29.074219 -2.128906 29.15625 -1.296875 29.441406 -0.488281 L 26.398438 -8.921875 C 25.960938 -10.113281 25.589844 -10.910156 25.285156 -11.316406 C 25.167969 -11.472656 24.992188 -11.617188 24.753906 -11.753906 Z M 24.753906 -11.753906 "/></g></g></g><g fill="#ffffff" fill-opacity="1"><g transform="translate(162.469523, 59.89676)"><g><path d="M -3.359375 -3.285156 L -3.359375 -38.808594 C -3.359375 -40.28125 -3.078125 -41.679688 -2.511719 -43.011719 C -1.964844 -44.296875 -1.183594 -45.449219 -0.164062 -46.46875 C 0.855469 -47.488281 2.007812 -48.273438 3.296875 -48.820312 C 4.625 -49.386719 6.027344 -49.667969 7.496094 -49.667969 L 28.601562 -49.667969 C 30.074219 -49.667969 31.472656 -49.386719 32.804688 -48.820312 C 34.089844 -48.273438 35.242188 -47.488281 36.261719 -46.46875 C 37.28125 -45.449219 38.066406 -44.296875 38.613281 -43.011719 C 39.179688 -41.679688 39.460938 -40.28125 39.460938 -38.808594 L 39.460938 -36.15625 C 39.460938 -34.6875 39.179688 -33.289062 38.613281 -31.957031 C 38.066406 -30.671875 37.28125 -29.519531 36.261719 -28.5 C 35.242188 -27.476562 34.089844 -26.695312 32.804688 -26.148438 C 31.472656 -25.582031 30.074219 -25.300781 28.601562 -25.300781 L 16.261719 -25.300781 C 16.90625 -25.300781 17.550781 -25.394531 18.1875 -25.582031 C 19.199219 -25.882812 20.105469 -26.386719 20.902344 -27.097656 C 21.792969 -27.890625 22.445312 -28.839844 22.863281 -29.953125 C 23.164062 -30.753906 23.3125 -31.570312 23.3125 -32.410156 L 23.3125 -26.46875 C 23.3125 -27.203125 23.195312 -27.925781 22.957031 -28.636719 C 22.601562 -29.703125 22.023438 -30.632812 21.226562 -31.433594 C 20.425781 -32.230469 19.496094 -32.808594 18.429688 -33.164062 C 17.71875 -33.402344 16.996094 -33.519531 16.261719 -33.519531 L 27.449219 -33.519531 C 28.921875 -33.519531 30.320312 -33.238281 31.652344 -32.671875 C 32.9375 -32.125 34.089844 -31.34375 35.109375 -30.324219 C 36.128906 -29.304688 36.914062 -28.152344 37.457031 -26.863281 C 38.023438 -25.535156 38.308594 -24.132812 38.308594 -22.664062 L 38.308594 -20.585938 C 38.308594 -19.117188 38.023438 -17.71875 37.457031 -16.386719 C 36.914062 -15.101562 36.128906 -13.949219 35.109375 -12.929688 C 34.089844 -11.90625 32.9375 -11.125 31.652344 -10.578125 C 30.320312 -10.011719 28.921875 -9.730469 27.449219 -9.730469 L 16.261719 -9.730469 C 16.90625 -9.730469 17.550781 -9.824219 18.1875 -10.011719 C 19.199219 -10.3125 20.105469 -10.816406 20.902344 -11.527344 C 21.792969 -12.320312 22.445312 -13.269531 22.863281 -14.382812 C 23.164062 -15.183594 23.3125 -16 23.3125 -16.839844 L 23.3125 -9.746094 C 23.3125 -10.476562 23.195312 -11.199219 22.957031 -11.914062 C 22.601562 -12.976562 22.023438 -13.910156 21.226562 -14.710938 C 20.425781 -15.507812 19.496094 -16.085938 18.429688 -16.441406 C 17.71875 -16.679688 16.996094 -16.796875 16.261719 -16.796875 L 28.601562 -16.796875 C 30.074219 -16.796875 31.472656 -16.515625 32.804688 -15.949219 C 34.089844 -15.402344 35.242188 -14.617188 36.261719 -13.597656 C 37.28125 -12.578125 38.066406 -11.425781 38.613281 -10.140625 C 39.179688 -8.808594 39.460938 -7.410156 39.460938 -5.941406 L 39.460938 -3.285156 C 39.460938 -1.816406 39.179688 -0.417969 38.613281 0.914062 C 38.066406 2.199219 37.28125 3.351562 36.261719 4.371094 C 35.242188 5.390625 34.089844 6.175781 32.804688 6.722656 C 31.472656 7.289062 30.074219 7.570312 28.601562 7.570312 L 7.496094 7.570312 C 6.027344 7.570312 4.625 7.289062 3.296875 6.722656 C 2.007812 6.175781 0.855469 5.390625 -0.164062 4.371094 C -1.183594 3.351562 -1.964844 2.199219 -2.511719 0.914062 C -3.078125 -0.417969 -3.359375 -1.816406 -3.359375 -3.285156 Z M 11.78125 -3.285156 C 11.78125 -3.871094 11.660156 -4.445312 11.421875 -5.007812 C 11.203125 -5.527344 10.910156 -5.96875 10.542969 -6.332031 C 10.175781 -6.699219 9.734375 -6.992188 9.21875 -7.210938 C 8.65625 -7.449219 8.082031 -7.570312 7.496094 -7.570312 L 28.601562 -7.570312 C 28.015625 -7.570312 27.445312 -7.449219 26.882812 -7.210938 C 26.363281 -6.992188 25.921875 -6.699219 25.558594 -6.332031 C 25.191406 -5.96875 24.898438 -5.527344 24.679688 -5.007812 C 24.441406 -4.445312 24.320312 -3.871094 24.320312 -3.285156 L 24.320312 -5.941406 C 24.320312 -5.355469 24.441406 -4.78125 24.679688 -4.21875 C 24.898438 -3.703125 25.191406 -3.257812 25.558594 -2.894531 C 25.921875 -2.527344 26.363281 -2.234375 26.882812 -2.015625 C 27.445312 -1.777344 28.015625 -1.65625 28.601562 -1.65625 L 16.261719 -1.65625 C 15.355469 -1.65625 14.484375 -1.796875 13.640625 -2.078125 C 12.445312 -2.476562 11.40625 -3.117188 10.519531 -4.003906 C 9.632812 -4.890625 8.992188 -5.929688 8.59375 -7.125 C 8.3125 -7.964844 8.171875 -8.839844 8.171875 -9.746094 L 8.171875 -16.839844 C 8.171875 -17.832031 8.34375 -18.785156 8.6875 -19.699219 C 9.148438 -20.925781 9.867188 -21.972656 10.84375 -22.84375 C 11.726562 -23.628906 12.742188 -24.191406 13.882812 -24.53125 C 14.652344 -24.757812 15.445312 -24.871094 16.261719 -24.871094 L 27.449219 -24.871094 C 26.863281 -24.871094 26.289062 -24.75 25.730469 -24.511719 C 25.210938 -24.292969 24.769531 -24 24.402344 -23.632812 C 24.039062 -23.265625 23.746094 -22.824219 23.523438 -22.308594 C 23.285156 -21.746094 23.167969 -21.171875 23.167969 -20.585938 L 23.167969 -22.664062 C 23.167969 -22.078125 23.285156 -21.503906 23.523438 -20.941406 C 23.746094 -20.425781 24.039062 -19.984375 24.402344 -19.617188 C 24.769531 -19.25 25.210938 -18.957031 25.730469 -18.738281 C 26.289062 -18.5 26.863281 -18.378906 27.449219 -18.378906 L 16.261719 -18.378906 C 15.355469 -18.378906 14.484375 -18.519531 13.640625 -18.800781 C 12.445312 -19.199219 11.40625 -19.839844 10.519531 -20.726562 C 9.632812 -21.613281 8.992188 -22.652344 8.59375 -23.847656 C 8.3125 -24.691406 8.171875 -25.5625 8.171875 -26.46875 L 8.171875 -32.410156 C 8.171875 -33.402344 8.34375 -34.355469 8.6875 -35.269531 C 9.148438 -36.496094 9.867188 -37.542969 10.84375 -38.414062 C 11.726562 -39.199219 12.742188 -39.761719 13.882812 -40.101562 C 14.652344 -40.328125 15.445312 -40.441406 16.261719 -40.441406 L 28.601562 -40.441406 C 28.015625 -40.441406 27.445312 -40.320312 26.882812 -40.082031 C 26.363281 -39.863281 25.921875 -39.570312 25.558594 -39.203125 C 25.191406 -38.835938 24.898438 -38.394531 24.679688 -37.878906 C 24.441406 -37.316406 24.320312 -36.742188 24.320312 -36.15625 L 24.320312 -38.808594 C 24.320312 -38.226562 24.441406 -37.652344 24.679688 -37.089844 C 24.898438 -36.570312 25.191406 -36.128906 25.558594 -35.765625 C 25.921875 -35.398438 26.363281 -35.105469 26.882812 -34.886719 C 27.445312 -34.648438 28.015625 -34.527344 28.601562 -34.527344 L 7.496094 -34.527344 C 8.082031 -34.527344 8.65625 -34.648438 9.21875 -34.886719 C 9.734375 -35.105469 10.175781 -35.398438 10.542969 -35.765625 C 10.910156 -36.128906 11.203125 -36.570312 11.421875 -37.089844 C 11.660156 -37.652344 11.78125 -38.226562 11.78125 -38.808594 Z M 11.78125 -3.285156 "/></g></g></g><g fill="#04940e" fill-opacity="1"><g transform="translate(5.031853, 59.89676)"><g><path d="M 4.78125 -3.28125 L 4.78125 -8.828125 C 4.78125 -9.710938 5.109375 -10.476562 5.765625 -11.125 C 6.421875 -11.78125 7.191406 -12.109375 8.078125 -12.109375 L 14.1875 -12.109375 C 15.070312 -12.109375 15.835938 -11.78125 16.484375 -11.125 C 17.140625 -10.476562 17.46875 -9.710938 17.46875 -8.828125 L 17.46875 -3.28125 C 17.46875 -2.394531 17.140625 -1.625 16.484375 -0.96875 C 15.835938 -0.320312 15.070312 0 14.1875 0 L 8.078125 0 C 7.191406 0 6.421875 -0.320312 5.765625 -0.96875 C 5.109375 -1.625 4.78125 -2.394531 4.78125 -3.28125 Z M 4.78125 -3.28125 "/></g></g></g><g fill="#04940e" fill-opacity="1"><g transform="translate(21.799486, 59.89676)"><g><path d="M 18.34375 -26.8125 C 24.375 -25.195312 28.617188 -23.265625 31.078125 -21.015625 C 33.546875 -18.765625 34.78125 -15.894531 34.78125 -12.40625 C 34.78125 -8.175781 33.316406 -4.953125 30.390625 -2.734375 C 27.472656 -0.523438 23.070312 0.578125 17.1875 0.578125 C 13.113281 0.578125 9.132812 -0.328125 5.25 -2.140625 C 4.40625 -2.515625 3.816406 -3.15625 3.484375 -4.0625 C 3.160156 -4.96875 3.132812 -5.898438 3.40625 -6.859375 L 4.15625 -9.578125 C 4.382812 -10.347656 4.882812 -10.875 5.65625 -11.15625 C 6.425781 -11.445312 7.175781 -11.398438 7.90625 -11.015625 C 11.4375 -9.242188 14.722656 -8.359375 17.765625 -8.359375 C 21.222656 -8.359375 22.953125 -9.609375 22.953125 -12.109375 C 22.953125 -13.722656 21.414062 -14.972656 18.34375 -15.859375 C 12.726562 -17.472656 8.726562 -19.414062 6.34375 -21.6875 C 3.957031 -23.957031 2.765625 -26.820312 2.765625 -30.28125 C 2.765625 -34.082031 4.222656 -37.097656 7.140625 -39.328125 C 10.066406 -41.554688 14.1875 -42.671875 19.5 -42.671875 C 23.53125 -42.671875 27.316406 -42.113281 30.859375 -41 C 31.742188 -40.726562 32.40625 -40.160156 32.84375 -39.296875 C 33.28125 -38.429688 33.40625 -37.539062 33.21875 -36.625 L 32.578125 -34.03125 C 32.429688 -33.21875 31.972656 -32.617188 31.203125 -32.234375 C 30.429688 -31.847656 29.640625 -31.8125 28.828125 -32.125 C 25.867188 -33.195312 22.945312 -33.734375 20.0625 -33.734375 C 18.257812 -33.734375 16.894531 -33.414062 15.96875 -32.78125 C 15.050781 -32.144531 14.59375 -31.3125 14.59375 -30.28125 C 14.59375 -28.664062 15.84375 -27.507812 18.34375 -26.8125 Z M 18.34375 -26.8125 "/></g></g></g><g fill="#04940e" fill-opacity="1"><g transform="translate(53.782669, 59.89676)"><g><path d="M 2.765625 -35.875 L 2.765625 -38.8125 C 2.765625 -39.695312 3.09375 -40.460938 3.75 -41.109375 C 4.40625 -41.765625 5.175781 -42.09375 6.0625 -42.09375 L 34.078125 -42.09375 C 34.960938 -42.09375 35.734375 -41.765625 36.390625 -41.109375 C 37.046875 -40.460938 37.375 -39.695312 37.375 -38.8125 L 37.375 -35.875 C 37.375 -34.988281 37.046875 -34.21875 36.390625 -33.5625 C 35.734375 -32.90625 34.960938 -32.578125 34.078125 -32.578125 L 26.46875 -32.578125 C 26.125 -32.578125 25.953125 -32.40625 25.953125 -32.0625 L 25.953125 -3.28125 C 25.953125 -2.394531 25.632812 -1.625 25 -0.96875 C 24.363281 -0.320312 23.601562 0 22.71875 0 L 17.421875 0 C 16.535156 0 15.773438 -0.320312 15.140625 -0.96875 C 14.503906 -1.625 14.1875 -2.394531 14.1875 -3.28125 L 14.1875 -32.0625 C 14.1875 -32.40625 14.015625 -32.578125 13.671875 -32.578125 L 6.0625 -32.578125 C 5.175781 -32.578125 4.40625 -32.90625 3.75 -33.5625 C 3.09375 -34.21875 2.765625 -34.988281 2.765625 -35.875 Z M 2.765625 -35.875 "/></g></g></g><g fill="#04940e" fill-opacity="1"><g transform="translate(88.417055, 59.89676)"><g><path d="M 13.4375 -21.046875 C 13.4375 -12.972656 16.703125 -8.9375 23.234375 -8.9375 C 29.773438 -8.9375 33.046875 -12.972656 33.046875 -21.046875 C 33.046875 -29.117188 29.773438 -33.15625 23.234375 -33.15625 C 16.703125 -33.15625 13.4375 -29.117188 13.4375 -21.046875 Z M 7.46875 -36.875 C 11.375 -40.738281 16.628906 -42.671875 23.234375 -42.671875 C 29.847656 -42.671875 35.109375 -40.738281 39.015625 -36.875 C 42.921875 -33.007812 44.875 -27.734375 44.875 -21.046875 C 44.875 -14.359375 42.921875 -9.082031 39.015625 -5.21875 C 35.109375 -1.351562 29.847656 0.578125 23.234375 0.578125 C 16.628906 0.578125 11.375 -1.351562 7.46875 -5.21875 C 3.5625 -9.082031 1.609375 -14.359375 1.609375 -21.046875 C 1.609375 -27.734375 3.5625 -33.007812 7.46875 -36.875 Z M 7.46875 -36.875 "/></g></g></g><g fill="#04940e" fill-opacity="1"><g transform="translate(129.39126, 59.89676)"><g><path d="M 18.625 -23.0625 C 20.582031 -23.0625 22.128906 -23.550781 23.265625 -24.53125 C 24.398438 -25.519531 24.96875 -26.859375 24.96875 -28.546875 C 24.96875 -32.203125 22.851562 -34.03125 18.625 -34.03125 C 17.664062 -34.03125 16.78125 -33.972656 15.96875 -33.859375 C 15.625 -33.773438 15.453125 -33.5625 15.453125 -33.21875 L 15.453125 -23.59375 C 15.453125 -23.238281 15.609375 -23.0625 15.921875 -23.0625 Z M 28.484375 -18.34375 C 29.640625 -17.6875 30.59375 -16.859375 31.34375 -15.859375 C 32.09375 -14.859375 32.8125 -13.414062 33.5 -11.53125 L 36.5625 -3.0625 C 36.832031 -2.289062 36.734375 -1.585938 36.265625 -0.953125 C 35.804688 -0.316406 35.175781 0 34.375 0 L 29.125 0 C 28.125 0 27.21875 -0.285156 26.40625 -0.859375 C 25.601562 -1.441406 25.066406 -2.191406 24.796875 -3.109375 L 22.265625 -10.953125 C 21.835938 -12.296875 21.296875 -13.253906 20.640625 -13.828125 C 19.992188 -14.410156 19.128906 -14.703125 18.046875 -14.703125 L 15.921875 -14.703125 C 15.609375 -14.703125 15.453125 -14.53125 15.453125 -14.1875 L 15.453125 -3.28125 C 15.453125 -2.394531 15.125 -1.625 14.46875 -0.96875 C 13.820312 -0.320312 13.054688 0 12.171875 0 L 7.5 0 C 6.613281 0 5.84375 -0.320312 5.1875 -0.96875 C 4.53125 -1.625 4.203125 -2.394531 4.203125 -3.28125 L 4.203125 -38.53125 C 4.203125 -39.445312 4.5 -40.257812 5.09375 -40.96875 C 5.695312 -41.6875 6.457031 -42.082031 7.375 -42.15625 C 11.144531 -42.5 15.085938 -42.671875 19.203125 -42.671875 C 30.734375 -42.671875 36.5 -38.347656 36.5 -29.703125 C 36.5 -27.316406 35.75 -25.082031 34.25 -23 C 32.757812 -20.925781 30.835938 -19.429688 28.484375 -18.515625 C 28.453125 -18.515625 28.4375 -18.492188 28.4375 -18.453125 C 28.4375 -18.378906 28.453125 -18.34375 28.484375 -18.34375 Z M 28.484375 -18.34375 "/></g></g></g><g fill="#04940e" fill-opacity="1"><g transform="translate(162.469523, 59.89676)"><g><path d="M 4.203125 -3.28125 L 4.203125 -38.8125 C 4.203125 -39.695312 4.53125 -40.460938 5.1875 -41.109375 C 5.84375 -41.765625 6.613281 -42.09375 7.5 -42.09375 L 28.609375 -42.09375 C 29.492188 -42.09375 30.257812 -41.765625 30.90625 -41.109375 C 31.5625 -40.460938 31.890625 -39.695312 31.890625 -38.8125 L 31.890625 -36.15625 C 31.890625 -35.269531 31.5625 -34.5 30.90625 -33.84375 C 30.257812 -33.195312 29.492188 -32.875 28.609375 -32.875 L 16.265625 -32.875 C 15.921875 -32.875 15.75 -32.71875 15.75 -32.40625 L 15.75 -26.46875 C 15.75 -26.125 15.921875 -25.953125 16.265625 -25.953125 L 27.453125 -25.953125 C 28.335938 -25.953125 29.101562 -25.625 29.75 -24.96875 C 30.40625 -24.3125 30.734375 -23.546875 30.734375 -22.671875 L 30.734375 -20.59375 C 30.734375 -19.707031 30.40625 -18.9375 29.75 -18.28125 C 29.101562 -17.625 28.335938 -17.296875 27.453125 -17.296875 L 16.265625 -17.296875 C 15.921875 -17.296875 15.75 -17.144531 15.75 -16.84375 L 15.75 -9.75 C 15.75 -9.40625 15.921875 -9.234375 16.265625 -9.234375 L 28.609375 -9.234375 C 29.492188 -9.234375 30.257812 -8.90625 30.90625 -8.25 C 31.5625 -7.59375 31.890625 -6.820312 31.890625 -5.9375 L 31.890625 -3.28125 C 31.890625 -2.394531 31.5625 -1.625 30.90625 -0.96875 C 30.257812 -0.320312 29.492188 0 28.609375 0 L 7.5 0 C 6.613281 0 5.84375 -0.320312 5.1875 -0.96875 C 4.53125 -1.625 4.203125 -2.394531 4.203125 -3.28125 Z M 4.203125 -3.28125 "/></g></g></g></g></g></svg>