<svg xmlns="http://www.w3.org/2000/svg" xmlns:xlink="http://www.w3.org/1999/xlink" width="912" zoomAndPan="magnify" viewBox="366 620 912 206" height="206" preserveAspectRatio="xMidYMid meet" version="1.0"><defs><g/><clipPath id="90078cca01"><path d="M 410 631.675781 L 487 631.675781 L 487 702 L 410 702 Z M 410 631.675781 " clip-rule="nonzero"/></clipPath><clipPath id="da116d0476"><path d="M 377.933594 676 L 519.683594 676 L 519.683594 813.175781 L 377.933594 813.175781 Z M 377.933594 676 " clip-rule="nonzero"/></clipPath><clipPath id="73bd6a1e72"><path d="M 423 676 L 519.683594 676 L 519.683594 775 L 423 775 Z M 423 676 " clip-rule="nonzero"/></clipPath></defs><g clip-path="url(#90078cca01)"><path fill="#000000" d="M 486.875 670.109375 L 486.875 676.109375 L 473.449219 676.109375 L 473.449219 670.109375 C 473.449219 656.371094 462.257812 645.179688 448.472656 645.179688 C 434.730469 645.179688 423.542969 656.371094 423.542969 670.109375 L 423.542969 701.304688 L 410.117188 701.304688 L 410.117188 670.109375 C 410.117188 648.941406 427.300781 631.753906 448.472656 631.753906 C 469.644531 631.753906 486.875 648.941406 486.875 670.109375 Z M 486.875 670.109375 " fill-opacity="1" fill-rule="nonzero"/></g><g clip-path="url(#da116d0476)"><path fill="#00bf63" d="M 519.144531 799.683594 L 519.144531 813.109375 L 377.84375 813.109375 L 377.84375 676.109375 L 410.117188 676.109375 L 410.117188 689.535156 L 391.273438 689.535156 L 391.273438 799.683594 Z M 519.144531 799.683594 " fill-opacity="1" fill-rule="nonzero"/></g><g clip-path="url(#73bd6a1e72)"><path fill="#00bf63" d="M 519.144531 676.109375 L 519.144531 774.84375 L 468.75 774.84375 L 437.105469 745.300781 L 437.105469 770.902344 L 423.675781 770.902344 L 423.675781 723.148438 L 471.390625 723.148438 L 471.390625 736.574219 L 447.398438 736.574219 L 474.03125 761.414062 L 505.71875 761.414062 L 505.71875 689.535156 L 435.761719 689.535156 L 435.761719 676.109375 Z M 519.144531 676.109375 " fill-opacity="1" fill-rule="nonzero"/></g><g fill="#000000" fill-opacity="1"><g transform="translate(517.969669, 768.998578)"><g><path d="M 81.40625 -81.953125 C 83.832031 -77.003906 85.046875 -71.492188 85.046875 -65.421875 C 85.046875 -59.359375 83.832031 -53.875 81.40625 -48.96875 C 78.976562 -44.0625 75.847656 -40.160156 72.015625 -37.265625 C 64.265625 -31.285156 56.234375 -28.296875 47.921875 -28.296875 L 30.40625 -28.296875 L 30.40625 -12.46875 C 30.40625 -10.320312 30.332031 -8.710938 30.1875 -7.640625 C 30.050781 -6.566406 29.609375 -5.328125 28.859375 -3.921875 C 27.554688 -1.398438 23.914062 -0.140625 17.9375 -0.140625 C 11.394531 -0.140625 7.5625 -1.867188 6.4375 -5.328125 C 5.882812 -6.910156 5.609375 -9.335938 5.609375 -12.609375 L 5.609375 -90.375 C 5.609375 -92.519531 5.675781 -94.128906 5.8125 -95.203125 C 5.957031 -96.273438 6.398438 -97.515625 7.140625 -98.921875 C 8.453125 -101.441406 12.097656 -102.703125 18.078125 -102.703125 L 48.0625 -102.703125 C 56.28125 -102.703125 64.265625 -99.710938 72.015625 -93.734375 C 75.847656 -90.835938 78.976562 -86.910156 81.40625 -81.953125 Z M 48.0625 -53.09375 C 50.863281 -53.09375 53.617188 -54.117188 56.328125 -56.171875 C 59.035156 -58.234375 60.390625 -61.316406 60.390625 -65.421875 C 60.390625 -69.535156 59.035156 -72.644531 56.328125 -74.75 C 53.617188 -76.851562 50.816406 -77.90625 47.921875 -77.90625 L 30.40625 -77.90625 L 30.40625 -53.09375 Z M 48.0625 -53.09375 "/></g></g></g><g fill="#000000" fill-opacity="1"><g transform="translate(606.518745, 768.998578)"><g><path d="M 3.5 -36.84375 C 3.5 -48.050781 7.421875 -57.296875 15.265625 -64.578125 C 23.117188 -71.867188 32.085938 -75.515625 42.171875 -75.515625 C 52.265625 -75.515625 61.1875 -71.894531 68.9375 -64.65625 C 76.6875 -57.414062 80.5625 -48.191406 80.5625 -36.984375 C 80.5625 -29.234375 78.550781 -22.34375 74.53125 -16.3125 C 70.519531 -10.289062 65.640625 -5.851562 59.890625 -3 C 54.148438 -0.15625 48.195312 1.265625 42.03125 1.265625 C 35.863281 1.265625 29.882812 -0.25 24.09375 -3.28125 C 18.300781 -6.320312 13.421875 -10.804688 9.453125 -16.734375 C 5.484375 -22.671875 3.5 -29.375 3.5 -36.84375 Z M 32.78125 -26.828125 C 35.769531 -24.535156 38.804688 -23.390625 41.890625 -23.390625 C 44.972656 -23.390625 48.054688 -24.554688 51.140625 -26.890625 C 54.222656 -29.234375 55.765625 -32.691406 55.765625 -37.265625 C 55.765625 -41.847656 54.316406 -45.257812 51.421875 -47.5 C 48.523438 -49.738281 45.394531 -50.859375 42.03125 -50.859375 C 38.664062 -50.859375 35.535156 -49.691406 32.640625 -47.359375 C 29.742188 -45.023438 28.296875 -41.59375 28.296875 -37.0625 C 28.296875 -32.53125 29.789062 -29.117188 32.78125 -26.828125 Z M 32.78125 -26.828125 "/></g></g></g><g fill="#000000" fill-opacity="1"><g transform="translate(690.584324, 768.998578)"><g><path d="M 28.71875 -36.921875 C 28.71875 -32.953125 30.023438 -29.867188 32.640625 -27.671875 C 35.253906 -25.472656 38.03125 -24.375 40.96875 -24.375 C 43.914062 -24.375 46.671875 -25.238281 49.234375 -26.96875 C 51.804688 -28.695312 53.890625 -29.5625 55.484375 -29.5625 C 58.285156 -29.5625 61.695312 -27.085938 65.71875 -22.140625 C 67.863281 -19.429688 68.9375 -17.003906 68.9375 -14.859375 C 68.9375 -11.304688 66.367188 -7.988281 61.234375 -4.90625 C 55.898438 -1.164062 49.359375 0.703125 41.609375 0.703125 C 32.921875 0.703125 24.5625 -2.425781 16.53125 -8.6875 C 12.695312 -11.675781 9.566406 -15.664062 7.140625 -20.65625 C 4.710938 -25.65625 3.5 -31.164062 3.5 -37.1875 C 3.5 -43.21875 4.710938 -48.6875 7.140625 -53.59375 C 9.566406 -58.5 12.695312 -62.445312 16.53125 -65.4375 C 24.28125 -71.59375 32.546875 -74.671875 41.328125 -74.671875 C 44.878906 -74.671875 48.335938 -74.179688 51.703125 -73.203125 C 55.066406 -72.222656 57.539062 -71.265625 59.125 -70.328125 L 61.375 -68.9375 C 63.050781 -67.8125 64.359375 -66.921875 65.296875 -66.265625 C 67.722656 -64.398438 68.9375 -62.273438 68.9375 -59.890625 C 68.9375 -57.515625 67.953125 -54.832031 65.984375 -51.84375 C 62.628906 -46.707031 59.410156 -44.140625 56.328125 -44.140625 C 54.546875 -44.140625 52.023438 -45.164062 48.765625 -47.21875 C 47.078125 -48.800781 44.664062 -49.59375 41.53125 -49.59375 C 38.40625 -49.59375 35.488281 -48.472656 32.78125 -46.234375 C 30.070312 -43.992188 28.71875 -40.890625 28.71875 -36.921875 Z M 28.71875 -36.921875 "/></g></g></g><g fill="#000000" fill-opacity="1"><g transform="translate(763.020841, 768.998578)"><g><path d="M 49.03125 -36.984375 L 67.671875 -21.578125 C 70.003906 -19.617188 71.472656 -18.125 72.078125 -17.09375 C 72.691406 -16.0625 73 -15.082031 73 -14.15625 C 73 -11.90625 71.550781 -8.867188 68.65625 -5.046875 C 65.476562 -1.117188 62.675781 0.84375 60.25 0.84375 C 58.195312 0.84375 55.347656 -0.507812 51.703125 -3.21875 L 50.296875 -4.203125 C 48.148438 -5.972656 44.832031 -9.078125 40.34375 -13.515625 C 35.863281 -17.953125 32.457031 -21.109375 30.125 -22.984375 L 30.125 -12.1875 C 30.125 -10.039062 30.050781 -8.429688 29.90625 -7.359375 C 29.769531 -6.285156 29.328125 -5.046875 28.578125 -3.640625 C 27.367188 -1.210938 23.773438 0 17.796875 0 C 11.910156 0 8.3125 -1.257812 7 -3.78125 C 6.351562 -5.1875 5.957031 -6.425781 5.8125 -7.5 C 5.675781 -8.570312 5.609375 -10.179688 5.609375 -12.328125 L 5.609375 -96.25 C 5.609375 -98.40625 5.675781 -100.019531 5.8125 -101.09375 C 5.957031 -102.164062 6.351562 -103.398438 7 -104.796875 C 8.3125 -107.316406 11.957031 -108.578125 17.9375 -108.578125 C 22.414062 -108.578125 25.59375 -107.785156 27.46875 -106.203125 C 29.050781 -104.890625 29.890625 -102.832031 29.984375 -100.03125 C 30.078125 -99.195312 30.125 -97.890625 30.125 -96.109375 L 30.125 -51.703125 C 31.800781 -53.097656 34.34375 -55.476562 37.75 -58.84375 C 41.164062 -62.207031 43.710938 -64.585938 45.390625 -65.984375 L 47.078125 -67.109375 C 50.347656 -69.628906 53.148438 -70.890625 55.484375 -70.890625 C 57.816406 -70.890625 60.5 -69 63.53125 -65.21875 C 66.570312 -61.4375 68.09375 -58.46875 68.09375 -56.3125 C 68.09375 -54.164062 66.363281 -51.648438 62.90625 -48.765625 Z M 49.03125 -36.984375 "/></g></g></g><g fill="#000000" fill-opacity="1"><g transform="translate(838.119413, 768.998578)"><g><path d="M 76.78125 -45.734375 C 76.78125 -39.992188 75.351562 -35.742188 72.5 -32.984375 C 69.65625 -30.234375 66.503906 -28.859375 63.046875 -28.859375 L 29.84375 -28.859375 C 29.84375 -26.242188 31.382812 -24.046875 34.46875 -22.265625 C 37.550781 -20.492188 40.632812 -19.609375 43.71875 -19.609375 C 49.132812 -19.609375 53.382812 -20.171875 56.46875 -21.296875 L 58 -21.859375 C 60.25 -22.878906 62.117188 -23.390625 63.609375 -23.390625 C 66.597656 -23.390625 69.164062 -21.289062 71.3125 -17.09375 C 72.53125 -14.570312 73.140625 -12.421875 73.140625 -10.640625 C 73.140625 -2.328125 63.191406 1.828125 43.296875 1.828125 C 36.378906 1.828125 30.234375 0.632812 24.859375 -1.75 C 19.492188 -4.132812 15.316406 -7.285156 12.328125 -11.203125 C 6.441406 -18.773438 3.5 -27.226562 3.5 -36.5625 C 3.5 -48.332031 7.304688 -57.742188 14.921875 -64.796875 C 22.535156 -71.847656 32.039062 -75.375 43.4375 -75.375 C 56.414062 -75.375 65.941406 -70.796875 72.015625 -61.640625 C 75.191406 -56.785156 76.78125 -51.484375 76.78125 -45.734375 Z M 47.21875 -41.609375 C 50.769531 -41.609375 52.546875 -43.101562 52.546875 -46.09375 C 52.546875 -48.238281 51.726562 -49.960938 50.09375 -51.265625 C 48.457031 -52.578125 46.117188 -53.234375 43.078125 -53.234375 C 40.046875 -53.234375 37.035156 -51.992188 34.046875 -49.515625 C 31.054688 -47.046875 29.5625 -44.410156 29.5625 -41.609375 Z M 47.21875 -41.609375 "/></g></g></g><g fill="#000000" fill-opacity="1"><g transform="translate(918.402022, 768.998578)"><g><path d="M 48.484375 -49.03125 L 39.375 -49.59375 L 39.375 -30.265625 C 39.375 -27.742188 39.769531 -25.921875 40.5625 -24.796875 C 41.351562 -23.679688 42.847656 -23.125 45.046875 -23.125 C 47.242188 -23.125 48.925781 -23.050781 50.09375 -22.90625 C 51.257812 -22.769531 52.492188 -22.328125 53.796875 -21.578125 C 55.953125 -20.359375 57.03125 -17.226562 57.03125 -12.1875 C 57.03125 -6.300781 55.71875 -2.707031 53.09375 -1.40625 C 51.695312 -0.75 50.460938 -0.347656 49.390625 -0.203125 C 48.316406 -0.0664062 46.75 0 44.6875 0 C 34.976562 0 27.597656 -2.191406 22.546875 -6.578125 C 17.503906 -10.972656 14.984375 -18.398438 14.984375 -28.859375 L 14.984375 -49.59375 C 13.210938 -49.3125 11.300781 -49.171875 9.25 -49.171875 C 7.195312 -49.171875 5.492188 -49.960938 4.140625 -51.546875 C 2.785156 -53.140625 2.109375 -55.851562 2.109375 -59.6875 C 2.109375 -63.519531 2.335938 -66.296875 2.796875 -68.015625 C 3.265625 -69.742188 3.921875 -70.984375 4.765625 -71.734375 C 6.253906 -72.953125 8.125 -73.5625 10.375 -73.5625 L 14.984375 -73 L 14.984375 -87.421875 C 14.984375 -89.578125 15.050781 -91.164062 15.1875 -92.1875 C 15.332031 -93.21875 15.78125 -94.335938 16.53125 -95.546875 C 17.75 -97.890625 21.347656 -99.0625 27.328125 -99.0625 C 33.671875 -99.0625 37.453125 -97.332031 38.671875 -93.875 C 39.140625 -92.375 39.375 -89.992188 39.375 -86.734375 L 39.375 -73 C 43.476562 -73.375 46.582031 -73.5625 48.6875 -73.5625 C 50.789062 -73.5625 52.378906 -73.488281 53.453125 -73.34375 C 54.523438 -73.207031 55.765625 -72.765625 57.171875 -72.015625 C 59.597656 -70.796875 60.8125 -67.203125 60.8125 -61.234375 C 60.8125 -55.347656 59.550781 -51.75 57.03125 -50.4375 C 55.625 -49.78125 54.382812 -49.378906 53.3125 -49.234375 C 52.238281 -49.097656 50.628906 -49.03125 48.484375 -49.03125 Z M 48.484375 -49.03125 "/></g></g></g><g fill="#00c15c" fill-opacity="1"><g transform="translate(981.317289, 768.998578)"><g><path d="M 30.40625 -20.734375 L 68.515625 -20.734375 C 71.597656 -20.734375 73.835938 -20.382812 75.234375 -19.6875 C 76.640625 -18.988281 77.570312 -17.890625 78.03125 -16.390625 C 78.5 -14.898438 78.734375 -12.914062 78.734375 -10.4375 C 78.734375 -7.957031 78.5 -5.96875 78.03125 -4.46875 C 77.570312 -2.976562 76.78125 -1.957031 75.65625 -1.40625 C 73.882812 -0.46875 71.457031 0 68.375 0 L 17.9375 0 C 11.394531 0 7.5625 -1.773438 6.4375 -5.328125 C 5.882812 -6.816406 5.609375 -9.195312 5.609375 -12.46875 L 5.609375 -90.375 C 5.609375 -92.519531 5.675781 -94.128906 5.8125 -95.203125 C 5.957031 -96.273438 6.398438 -97.515625 7.140625 -98.921875 C 8.453125 -101.441406 12.097656 -102.703125 18.078125 -102.703125 C 24.609375 -102.703125 28.484375 -100.972656 29.703125 -97.515625 C 30.171875 -95.929688 30.40625 -93.503906 30.40625 -90.234375 Z M 30.40625 -20.734375 "/></g></g></g><g fill="#00c15c" fill-opacity="1"><g transform="translate(1063.561438, 768.998578)"><g><path d="M 5.609375 -61.515625 C 5.609375 -63.660156 5.675781 -65.269531 5.8125 -66.34375 C 5.957031 -67.414062 6.351562 -68.648438 7 -70.046875 C 8.3125 -72.484375 11.957031 -73.703125 17.9375 -73.703125 C 22.414062 -73.703125 25.59375 -72.90625 27.46875 -71.3125 C 29.050781 -70.007812 29.890625 -68.003906 29.984375 -65.296875 C 30.078125 -64.359375 30.125 -63.003906 30.125 -61.234375 L 30.125 -12.1875 C 30.125 -10.039062 30.050781 -8.429688 29.90625 -7.359375 C 29.769531 -6.285156 29.328125 -5.046875 28.578125 -3.640625 C 27.367188 -1.210938 23.773438 0 17.796875 0 C 11.910156 0 8.3125 -1.257812 7 -3.78125 C 6.351562 -5.1875 5.957031 -6.398438 5.8125 -7.421875 C 5.675781 -8.453125 5.609375 -10.085938 5.609375 -12.328125 Z M 28.640625 -87.5 C 27.941406 -86.144531 26.707031 -85.1875 24.9375 -84.625 C 23.164062 -84.0625 20.804688 -83.78125 17.859375 -83.78125 C 14.921875 -83.78125 12.5625 -84.0625 10.78125 -84.625 C 9.007812 -85.1875 7.773438 -86.164062 7.078125 -87.5625 C 6.378906 -88.96875 5.957031 -90.207031 5.8125 -91.28125 C 5.675781 -92.351562 5.609375 -93.960938 5.609375 -96.109375 C 5.609375 -98.265625 5.675781 -99.878906 5.8125 -100.953125 C 5.957031 -102.023438 6.351562 -103.210938 7 -104.515625 C 8.3125 -107.035156 11.957031 -108.296875 17.9375 -108.296875 C 23.820312 -108.296875 27.367188 -107.035156 28.578125 -104.515625 C 29.328125 -103.117188 29.769531 -101.882812 29.90625 -100.8125 C 30.050781 -99.738281 30.125 -98.125 30.125 -95.96875 C 30.125 -93.820312 30.050781 -92.210938 29.90625 -91.140625 C 29.769531 -90.066406 29.347656 -88.851562 28.640625 -87.5 Z M 28.640625 -87.5 "/></g></g></g><g fill="#00c15c" fill-opacity="1"><g transform="translate(1099.289306, 768.998578)"><g><path d="M 46.65625 -73.84375 C 56 -73.84375 63.773438 -70.269531 69.984375 -63.125 C 76.191406 -55.976562 79.296875 -47.265625 79.296875 -36.984375 L 79.296875 -12.328125 C 79.296875 -10.179688 79.222656 -8.570312 79.078125 -7.5 C 78.941406 -6.425781 78.550781 -5.234375 77.90625 -3.921875 C 76.59375 -1.398438 72.945312 -0.140625 66.96875 -0.140625 C 60.34375 -0.140625 56.515625 -1.867188 55.484375 -5.328125 C 54.921875 -6.910156 54.640625 -9.289062 54.640625 -12.46875 L 54.640625 -37.125 C 54.640625 -40.957031 53.539062 -43.945312 51.34375 -46.09375 C 49.15625 -48.238281 46.210938 -49.3125 42.515625 -49.3125 C 38.828125 -49.3125 35.835938 -48.191406 33.546875 -45.953125 C 31.265625 -43.710938 30.125 -40.769531 30.125 -37.125 L 30.125 -12.328125 C 30.125 -10.179688 30.050781 -8.570312 29.90625 -7.5 C 29.769531 -6.425781 29.328125 -5.234375 28.578125 -3.921875 C 27.367188 -1.398438 23.773438 -0.140625 17.796875 -0.140625 C 11.910156 -0.140625 8.3125 -1.398438 7 -3.921875 C 6.351562 -5.328125 5.957031 -6.566406 5.8125 -7.640625 C 5.675781 -8.710938 5.609375 -10.320312 5.609375 -12.46875 L 5.609375 -62.0625 C 5.609375 -64.125 5.675781 -65.691406 5.8125 -66.765625 C 5.957031 -67.835938 6.398438 -69.023438 7.140625 -70.328125 C 8.453125 -72.671875 12.050781 -73.84375 17.9375 -73.84375 C 23.632812 -73.84375 27.132812 -72.765625 28.4375 -70.609375 C 29.375 -69.023438 29.84375 -67.113281 29.84375 -64.875 C 30.21875 -65.519531 31.054688 -66.453125 32.359375 -67.671875 C 33.671875 -68.890625 34.929688 -69.867188 36.140625 -70.609375 C 39.316406 -72.765625 42.820312 -73.84375 46.65625 -73.84375 Z M 46.65625 -73.84375 "/></g></g></g><g fill="#00c15c" fill-opacity="1"><g transform="translate(1184.195522, 768.998578)"><g><path d="M 49.03125 -36.984375 L 67.671875 -21.578125 C 70.003906 -19.617188 71.472656 -18.125 72.078125 -17.09375 C 72.691406 -16.0625 73 -15.082031 73 -14.15625 C 73 -11.90625 71.550781 -8.867188 68.65625 -5.046875 C 65.476562 -1.117188 62.675781 0.84375 60.25 0.84375 C 58.195312 0.84375 55.347656 -0.507812 51.703125 -3.21875 L 50.296875 -4.203125 C 48.148438 -5.972656 44.832031 -9.078125 40.34375 -13.515625 C 35.863281 -17.953125 32.457031 -21.109375 30.125 -22.984375 L 30.125 -12.1875 C 30.125 -10.039062 30.050781 -8.429688 29.90625 -7.359375 C 29.769531 -6.285156 29.328125 -5.046875 28.578125 -3.640625 C 27.367188 -1.210938 23.773438 0 17.796875 0 C 11.910156 0 8.3125 -1.257812 7 -3.78125 C 6.351562 -5.1875 5.957031 -6.425781 5.8125 -7.5 C 5.675781 -8.570312 5.609375 -10.179688 5.609375 -12.328125 L 5.609375 -96.25 C 5.609375 -98.40625 5.675781 -100.019531 5.8125 -101.09375 C 5.957031 -102.164062 6.351562 -103.398438 7 -104.796875 C 8.3125 -107.316406 11.957031 -108.578125 17.9375 -108.578125 C 22.414062 -108.578125 25.59375 -107.785156 27.46875 -106.203125 C 29.050781 -104.890625 29.890625 -102.832031 29.984375 -100.03125 C 30.078125 -99.195312 30.125 -97.890625 30.125 -96.109375 L 30.125 -51.703125 C 31.800781 -53.097656 34.34375 -55.476562 37.75 -58.84375 C 41.164062 -62.207031 43.710938 -64.585938 45.390625 -65.984375 L 47.078125 -67.109375 C 50.347656 -69.628906 53.148438 -70.890625 55.484375 -70.890625 C 57.816406 -70.890625 60.5 -69 63.53125 -65.21875 C 66.570312 -61.4375 68.09375 -58.46875 68.09375 -56.3125 C 68.09375 -54.164062 66.363281 -51.648438 62.90625 -48.765625 Z M 49.03125 -36.984375 "/></g></g></g><path stroke-linecap="butt" transform="matrix(0.74999, -0.00380678, 0.00380678, 0.74999, 377.922102, 798.385687)" fill="none" stroke-linejoin="miter" d="M -0.0015214 10.501504 L 1182.102366 10.50152 " stroke="#00bf63" stroke-width="21" stroke-opacity="1" stroke-miterlimit="4"/></svg>